<svg xmlns="http://www.w3.org/2000/svg" xmlns:xlink="http://www.w3.org/1999/xlink" contentStyleType="text/css" data-diagram-type="DESCRIPTION" height="728px" preserveAspectRatio="none" style="width:1455px;height:728px;background:#FFFFFF;" version="1.1" viewBox="0 0 1455 728" width="1455px" zoomAndPan="magnify"><title>Extrusion and Material Processing Flow</title><defs/><g><g class="title" data-source-line="2"><text fill="#000000" font-family="sans-serif" font-size="14" font-weight="bold" lengthAdjust="spacing" textLength="312.2656" x="564.5701" y="22.9951">Extrusion and Material Processing Flow</text></g><!--cluster Extruder--><g class="cluster" data-entity="Extruder" data-source-line="5" data-uid="ent0002" id="cluster_Extruder"><rect fill="none" height="116.3" rx="2.5" ry="2.5" style="stroke:#181818;stroke-width:1;" width="158" x="717.54" y="44.2969"/><rect fill="none" height="10" style="stroke:#181818;stroke-width:1;" width="15" x="855.54" y="49.2969"/><rect fill="none" height="2" style="stroke:#181818;stroke-width:1;" width="4" x="853.54" y="51.2969"/><rect fill="none" height="2" style="stroke:#181818;stroke-width:1;" width="4" x="853.54" y="55.2969"/><text fill="#000000" font-family="sans-serif" font-size="14" font-weight="bold" lengthAdjust="spacing" textLength="68.5781" x="762.2509" y="70.292">Extruder</text></g><!--cluster HaulOff--><g class="cluster" data-entity="HaulOff" data-source-line="8" data-uid="ent0004" id="cluster_HaulOff"><rect fill="none" height="116.3" rx="2.5" ry="2.5" style="stroke:#181818;stroke-width:1;" width="202" x="695.54" y="209.5969"/><rect fill="none" height="10" style="stroke:#181818;stroke-width:1;" width="15" x="877.54" y="214.5969"/><rect fill="none" height="2" style="stroke:#181818;stroke-width:1;" width="4" x="875.54" y="216.5969"/><rect fill="none" height="2" style="stroke:#181818;stroke-width:1;" width="4" x="875.54" y="220.5969"/><text fill="#000000" font-family="sans-serif" font-size="14" font-weight="bold" lengthAdjust="spacing" textLength="129.0146" x="732.0327" y="235.592">Haul-Off System</text></g><!--cluster Press--><g class="cluster" data-entity="Press" data-source-line="11" data-uid="ent0006" id="cluster_Press"><rect fill="none" height="241.59" rx="2.5" ry="2.5" style="stroke:#181818;stroke-width:1;" width="393" x="373.54" y="374.8969"/><rect fill="none" height="10" style="stroke:#181818;stroke-width:1;" width="15" x="746.54" y="379.8969"/><rect fill="none" height="2" style="stroke:#181818;stroke-width:1;" width="4" x="744.54" y="381.8969"/><rect fill="none" height="2" style="stroke:#181818;stroke-width:1;" width="4" x="744.54" y="385.8969"/><text fill="#000000" font-family="sans-serif" font-size="14" font-weight="bold" lengthAdjust="spacing" textLength="114.1055" x="512.9873" y="400.892">Press Machine</text></g><!--cluster Synchronization--><g class="cluster" data-entity="Synchronization" data-source-line="18" data-uid="ent0010" id="cluster_Synchronization"><rect fill="none" height="116.3" rx="2.5" ry="2.5" style="stroke:#181818;stroke-width:1;" width="631" x="40.54" y="209.5969"/><rect fill="none" height="10" style="stroke:#181818;stroke-width:1;" width="15" x="651.54" y="214.5969"/><rect fill="none" height="2" style="stroke:#181818;stroke-width:1;" width="4" x="649.54" y="216.5969"/><rect fill="none" height="2" style="stroke:#181818;stroke-width:1;" width="4" x="649.54" y="220.5969"/><text fill="#000000" font-family="sans-serif" font-size="14" font-weight="bold" lengthAdjust="spacing" textLength="127.4014" x="292.3393" y="235.592">Synchronization</text></g><!--cluster Temperature_Control--><g class="cluster" data-entity="Temperature_Control" data-source-line="25" data-uid="ent0015" id="cluster_Temperature_Control"><rect fill="none" height="116.29" rx="2.5" ry="2.5" style="stroke:#181818;stroke-width:1;" width="355" x="790.54" y="374.8969"/><rect fill="none" height="10" style="stroke:#181818;stroke-width:1;" width="15" x="1125.54" y="379.8969"/><rect fill="none" height="2" style="stroke:#181818;stroke-width:1;" width="4" x="1123.54" y="381.8969"/><rect fill="none" height="2" style="stroke:#181818;stroke-width:1;" width="4" x="1123.54" y="385.8969"/><text fill="#000000" font-family="sans-serif" font-size="14" font-weight="bold" lengthAdjust="spacing" textLength="165.3066" x="885.3867" y="400.892">Temperature Control</text></g><!--entity Hot Material--><g class="entity" data-entity="Hot Material" data-source-line="6" data-uid="ent0003" id="entity_Hot Material"><rect fill="#F1F1F1" height="46.2969" rx="2.5" ry="2.5" style="stroke:#181818;stroke-width:0.5;" width="125.9072" x="733.58" y="98.2969"/><rect fill="#F1F1F1" height="10" style="stroke:#181818;stroke-width:0.5;" width="15" x="839.4872" y="103.2969"/><rect fill="#F1F1F1" height="2" style="stroke:#181818;stroke-width:0.5;" width="4" x="837.4872" y="105.2969"/><rect fill="#F1F1F1" height="2" style="stroke:#181818;stroke-width:0.5;" width="4" x="837.4872" y="109.2969"/><text fill="#000000" font-family="sans-serif" font-size="14" lengthAdjust="spacing" textLength="85.9072" x="748.58" y="131.292">Hot Material</text></g><!--entity Pulling Mechanism--><g class="entity" data-entity="Pulling Mechanism" data-source-line="9" data-uid="ent0005" id="entity_Pulling Mechanism"><rect fill="#F1F1F1" height="46.2969" rx="2.5" ry="2.5" style="stroke:#181818;stroke-width:0.5;" width="170.7305" x="711.17" y="263.5969"/><rect fill="#F1F1F1" height="10" style="stroke:#181818;stroke-width:0.5;" width="15" x="861.9005" y="268.5969"/><rect fill="#F1F1F1" height="2" style="stroke:#181818;stroke-width:0.5;" width="4" x="859.9005" y="270.5969"/><rect fill="#F1F1F1" height="2" style="stroke:#181818;stroke-width:0.5;" width="4" x="859.9005" y="274.5969"/><text fill="#000000" font-family="sans-serif" font-size="14" lengthAdjust="spacing" textLength="130.7305" x="726.17" y="296.592">Pulling Mechanism</text></g><!--entity Pressing Cylinder--><g class="entity" data-entity="Pressing Cylinder" data-source-line="12" data-uid="ent0007" id="entity_Pressing Cylinder"><rect fill="#F1F1F1" height="46.2969" rx="2.5" ry="2.5" style="stroke:#181818;stroke-width:0.5;" width="161.4678" x="552.8" y="554.1869"/><rect fill="#F1F1F1" height="10" style="stroke:#181818;stroke-width:0.5;" width="15" x="694.2678" y="559.1869"/><rect fill="#F1F1F1" height="2" style="stroke:#181818;stroke-width:0.5;" width="4" x="692.2678" y="561.1869"/><rect fill="#F1F1F1" height="2" style="stroke:#181818;stroke-width:0.5;" width="4" x="692.2678" y="565.1869"/><text fill="#000000" font-family="sans-serif" font-size="14" lengthAdjust="spacing" textLength="121.4678" x="567.8" y="587.182">Pressing Cylinder</text></g><!--entity Moving Rails--><g class="entity" data-entity="Moving Rails" data-source-line="13" data-uid="ent0008" id="entity_Moving Rails"><rect fill="#F1F1F1" height="46.2969" rx="2.5" ry="2.5" style="stroke:#181818;stroke-width:0.5;" width="128.4092" x="389.33" y="554.1869"/><rect fill="#F1F1F1" height="10" style="stroke:#181818;stroke-width:0.5;" width="15" x="497.7392" y="559.1869"/><rect fill="#F1F1F1" height="2" style="stroke:#181818;stroke-width:0.5;" width="4" x="495.7392" y="561.1869"/><rect fill="#F1F1F1" height="2" style="stroke:#181818;stroke-width:0.5;" width="4" x="495.7392" y="565.1869"/><text fill="#000000" font-family="sans-serif" font-size="14" lengthAdjust="spacing" textLength="88.4092" x="404.33" y="587.182">Moving Rails</text></g><!--entity Processing Area--><g class="entity" data-entity="Processing Area" data-source-line="14" data-uid="ent0009" id="entity_Processing Area"><rect fill="#F1F1F1" height="46.2969" rx="2.5" ry="2.5" style="stroke:#181818;stroke-width:0.5;" width="152.2871" x="598.39" y="428.8969"/><rect fill="#F1F1F1" height="10" style="stroke:#181818;stroke-width:0.5;" width="15" x="730.6771" y="433.8969"/><rect fill="#F1F1F1" height="2" style="stroke:#181818;stroke-width:0.5;" width="4" x="728.6771" y="435.8969"/><rect fill="#F1F1F1" height="2" style="stroke:#181818;stroke-width:0.5;" width="4" x="728.6771" y="439.8969"/><text fill="#000000" font-family="sans-serif" font-size="14" lengthAdjust="spacing" textLength="112.2871" x="613.39" y="461.892">Processing Area</text></g><!--entity Speed--><g class="entity" data-entity="Speed" data-source-line="19" data-uid="ent0011" id="entity_Speed"><rect fill="#F1F1F1" height="46.2969" rx="2.5" ry="2.5" style="stroke:#181818;stroke-width:0.5;" width="83.8867" x="56.59" y="263.5969"/><rect fill="#F1F1F1" height="10" style="stroke:#181818;stroke-width:0.5;" width="15" x="120.4767" y="268.5969"/><rect fill="#F1F1F1" height="2" style="stroke:#181818;stroke-width:0.5;" width="4" x="118.4767" y="270.5969"/><rect fill="#F1F1F1" height="2" style="stroke:#181818;stroke-width:0.5;" width="4" x="118.4767" y="274.5969"/><text fill="#000000" font-family="sans-serif" font-size="14" lengthAdjust="spacing" textLength="43.8867" x="71.59" y="296.592">Speed</text></g><!--entity Rail Position--><g class="entity" data-entity="Rail Position" data-source-line="20" data-uid="ent0012" id="entity_Rail Position"><rect fill="#F1F1F1" height="46.2969" rx="2.5" ry="2.5" style="stroke:#181818;stroke-width:0.5;" width="125.5449" x="175.76" y="263.5969"/><rect fill="#F1F1F1" height="10" style="stroke:#181818;stroke-width:0.5;" width="15" x="281.3049" y="268.5969"/><rect fill="#F1F1F1" height="2" style="stroke:#181818;stroke-width:0.5;" width="4" x="279.3049" y="270.5969"/><rect fill="#F1F1F1" height="2" style="stroke:#181818;stroke-width:0.5;" width="4" x="279.3049" y="274.5969"/><text fill="#000000" font-family="sans-serif" font-size="14" lengthAdjust="spacing" textLength="85.5449" x="190.76" y="296.592">Rail Position</text></g><!--entity Cylinder--><g class="entity" data-entity="Cylinder" data-source-line="21" data-uid="ent0013" id="entity_Cylinder"><rect fill="#F1F1F1" height="46.2969" rx="2.5" ry="2.5" style="stroke:#181818;stroke-width:0.5;" width="97.9688" x="336.55" y="263.5969"/><rect fill="#F1F1F1" height="10" style="stroke:#181818;stroke-width:0.5;" width="15" x="414.5188" y="268.5969"/><rect fill="#F1F1F1" height="2" style="stroke:#181818;stroke-width:0.5;" width="4" x="412.5188" y="270.5969"/><rect fill="#F1F1F1" height="2" style="stroke:#181818;stroke-width:0.5;" width="4" x="412.5188" y="274.5969"/><text fill="#000000" font-family="sans-serif" font-size="14" lengthAdjust="spacing" textLength="57.9688" x="351.55" y="296.592">Cylinder</text></g><!--entity Temperature Control--><g class="entity" data-entity="Temperature Control" data-source-line="22" data-uid="ent0014" id="entity_Temperature Control"><rect fill="#F1F1F1" height="46.2969" rx="2.5" ry="2.5" style="stroke:#181818;stroke-width:0.5;" width="186.7334" x="469.17" y="263.5969"/><rect fill="#F1F1F1" height="10" style="stroke:#181818;stroke-width:0.5;" width="15" x="635.9034" y="268.5969"/><rect fill="#F1F1F1" height="2" style="stroke:#181818;stroke-width:0.5;" width="4" x="633.9034" y="270.5969"/><rect fill="#F1F1F1" height="2" style="stroke:#181818;stroke-width:0.5;" width="4" x="633.9034" y="274.5969"/><text fill="#000000" font-family="sans-serif" font-size="14" lengthAdjust="spacing" textLength="146.7334" x="484.17" y="296.592">Temperature Control</text></g><!--entity Infrared Lamp--><g class="entity" data-entity="Infrared Lamp" data-source-line="26" data-uid="ent0016" id="entity_Infrared Lamp"><rect fill="#F1F1F1" height="46.2969" rx="2.5" ry="2.5" style="stroke:#181818;stroke-width:0.5;" width="138.875" x="991.1" y="428.8969"/><rect fill="#F1F1F1" height="10" style="stroke:#181818;stroke-width:0.5;" width="15" x="1109.975" y="433.8969"/><rect fill="#F1F1F1" height="2" style="stroke:#181818;stroke-width:0.5;" width="4" x="1107.975" y="435.8969"/><rect fill="#F1F1F1" height="2" style="stroke:#181818;stroke-width:0.5;" width="4" x="1107.975" y="439.8969"/><text fill="#000000" font-family="sans-serif" font-size="14" lengthAdjust="spacing" textLength="98.875" x="1006.1" y="461.892">Infrared Lamp</text></g><!--entity Cooling System--><g class="entity" data-entity="Cooling System" data-source-line="27" data-uid="ent0017" id="entity_Cooling System"><rect fill="#F1F1F1" height="46.2969" rx="2.5" ry="2.5" style="stroke:#181818;stroke-width:0.5;" width="149.1016" x="806.98" y="428.8969"/><rect fill="#F1F1F1" height="10" style="stroke:#181818;stroke-width:0.5;" width="15" x="936.0816" y="433.8969"/><rect fill="#F1F1F1" height="2" style="stroke:#181818;stroke-width:0.5;" width="4" x="934.0816" y="435.8969"/><rect fill="#F1F1F1" height="2" style="stroke:#181818;stroke-width:0.5;" width="4" x="934.0816" y="439.8969"/><text fill="#000000" font-family="sans-serif" font-size="14" lengthAdjust="spacing" textLength="109.1016" x="821.98" y="461.892">Cooling System</text></g><!--entity Thermoplastic Material--><g class="entity" data-entity="Thermoplastic Material" data-source-line="31" data-uid="ent0018" id="entity_Thermoplastic Material"><rect fill="#F1F1F1" height="46.2969" rx="2.5" ry="2.5" style="stroke:#181818;stroke-width:0.5;" width="201.0479" x="373.01" y="98.2969"/><rect fill="#F1F1F1" height="10" style="stroke:#181818;stroke-width:0.5;" width="15" x="554.0579" y="103.2969"/><rect fill="#F1F1F1" height="2" style="stroke:#181818;stroke-width:0.5;" width="4" x="552.0579" y="105.2969"/><rect fill="#F1F1F1" height="2" style="stroke:#181818;stroke-width:0.5;" width="4" x="552.0579" y="109.2969"/><text fill="#000000" font-family="sans-serif" font-size="14" lengthAdjust="spacing" textLength="161.0479" x="388.01" y="131.292">Thermoplastic Material</text></g><!--entity Processed Material--><g class="entity" data-entity="Processed Material" data-source-line="44" data-uid="ent0026" id="entity_Processed Material"><rect fill="#F1F1F1" height="46.2969" rx="2.5" ry="2.5" style="stroke:#181818;stroke-width:0.5;" width="172.4873" x="820.29" y="554.1869"/><rect fill="#F1F1F1" height="10" style="stroke:#181818;stroke-width:0.5;" width="15" x="972.7773" y="559.1869"/><rect fill="#F1F1F1" height="2" style="stroke:#181818;stroke-width:0.5;" width="4" x="970.7773" y="561.1869"/><rect fill="#F1F1F1" height="2" style="stroke:#181818;stroke-width:0.5;" width="4" x="970.7773" y="565.1869"/><text fill="#000000" font-family="sans-serif" font-size="14" lengthAdjust="spacing" textLength="132.4873" x="835.29" y="587.182">Processed Material</text></g><g class="entity" data-entity="GMN28" data-source-line="46" data-uid="ent0029" id="entity_GMN28"><path d="M1164.67,431.9069 L1164.67,472.1725 L1448.4058,472.1725 L1448.4058,441.9069 L1438.4058,431.9069 L1164.67,431.9069" fill="#FEFFDD" style="stroke:#181818;stroke-width:0.5;"/><path d="M1438.4058,431.9069 L1438.4058,441.9069 L1448.4058,441.9069 L1438.4058,431.9069" fill="#FEFFDD" style="stroke:#181818;stroke-width:1;"/><text fill="#000000" font-family="sans-serif" font-size="13" lengthAdjust="spacing" textLength="262.7358" x="1170.67" y="448.9738">The material is positioned into the press</text><text fill="#000000" font-family="sans-serif" font-size="13" lengthAdjust="spacing" textLength="185.688" x="1170.67" y="464.1066">and pressed by the cylinder.</text></g><!--link Thermoplastic Material to Hot Material--><g class="link" data-entity-1="Thermoplastic Material" data-entity-2="Hot Material" data-source-line="31" data-uid="lnk19" id="link_Thermoplastic Material_Hot Material"><path d="M574.41,121.4469 C626.42,121.4469 682.25,121.4469 727.45,121.4469" fill="none" id="Thermoplastic Material-to-Hot Material" style="stroke:#181818;stroke-width:1;"/><polygon fill="#181818" points="733.45,121.4469,724.45,117.4469,728.45,121.4469,724.45,125.4469,733.45,121.4469" style="stroke:#181818;stroke-width:1;"/><text fill="#000000" font-family="sans-serif" font-size="13" lengthAdjust="spacing" textLength="123.0239" x="592.32" y="114.5138">Material Processed</text></g><!--link Hot Material to Pulling Mechanism--><g class="link" data-entity-1="Hot Material" data-entity-2="Pulling Mechanism" data-source-line="32" data-uid="lnk20" id="link_Hot Material_Pulling Mechanism"><path d="M796.54,144.8069 C796.54,175.9069 796.54,225.8969 796.54,257.1269" fill="none" id="Hot Material-to-Pulling Mechanism" style="stroke:#181818;stroke-width:1;"/><polygon fill="#181818" points="796.54,263.1269,800.54,254.1269,796.54,258.1269,792.54,254.1269,796.54,263.1269" style="stroke:#181818;stroke-width:1;"/><text fill="#000000" font-family="sans-serif" font-size="13" font-weight="bold" lengthAdjust="spacing" textLength="83.6748" x="797.54" y="189.6638">Is Extruded</text></g><!--reverse link Hot Material to Infrared Lamp--><g class="link" data-entity-1="Hot Material" data-entity-2="Infrared Lamp" data-source-line="33" data-uid="lnk22" id="link_Hot Material_Infrared Lamp"><path d="M850.7483,148.0227 C865.9483,156.5127 876.8,164.2369 889.54,176.5969 C970.11,254.7869 1029.16,378.3169 1051.13,428.6169" fill="none" id="Hot Material-backto-Infrared Lamp" style="stroke:#181818;stroke-width:1;"/><polygon fill="#181818" points="845.51,145.0969,851.4168,152.9778,849.8752,147.5351,855.318,145.9935,845.51,145.0969" style="stroke:#181818;stroke-width:1;"/><text fill="#000000" font-family="sans-serif" font-size="13" lengthAdjust="spacing" textLength="141.8511" x="1004.29" y="291.3138">Keeping Temperature</text></g><!--link Pulling Mechanism to Processing Area--><g class="link" data-entity-1="Pulling Mechanism" data-entity-2="Processing Area" data-source-line="38" data-uid="lnk23" id="link_Pulling Mechanism_Processing Area"><path d="M843.07,310.3169 C865.18,323.9869 883.78,341.9969 868.54,358.8969 C856.86,371.8269 806.81,360.6769 790.54,366.8969 C754.51,380.6569 724.035,404.5668 702.075,424.4768" fill="none" id="Pulling Mechanism-to-Processing Area" style="stroke:#181818;stroke-width:1;"/><polygon fill="#181818" points="697.63,428.5069,706.9843,425.4251,701.3342,425.1485,701.6108,419.4984,697.63,428.5069" style="stroke:#181818;stroke-width:1;"/><text fill="#000000" font-family="sans-serif" font-size="13" lengthAdjust="spacing" textLength="96.4971" x="875.08" y="354.9638">Pulled Material</text></g><!--link Processing Area to Moving Rails--><g class="link" data-entity-1="Processing Area" data-entity-2="Moving Rails" data-source-line="41" data-uid="lnk24" id="link_Processing Area_Moving Rails"><path d="M624.91,475.6669 C603.4,484.4969 577.67,493.7769 553.54,499.1869 C542.23,501.7269 457.41,498.6869 449.54,507.1869 C438.18,519.4569 438.6701,533.0211 443.0201,548.1311" fill="none" id="Processing Area-to-Moving Rails" style="stroke:#181818;stroke-width:1;"/><polygon fill="#181818" points="444.68,553.8969,446.034,544.1415,443.2967,549.092,438.3462,546.3548,444.68,553.8969" style="stroke:#181818;stroke-width:1;"/><text fill="#000000" font-family="sans-serif" font-size="13" font-weight="bold" lengthAdjust="spacing" textLength="102.9019" x="450.54" y="520.2538">Input Position</text></g><!--link Processing Area to Pressing Cylinder--><g class="link" data-entity-1="Processing Area" data-entity-2="Pressing Cylinder" data-source-line="42" data-uid="lnk25" id="link_Processing Area_Pressing Cylinder"><path d="M600.92,475.6169 C586.87,483.3569 573.94,493.6269 565.54,507.1869 C554.63,524.7969 564.9089,538.1168 583.7189,550.6668" fill="none" id="Processing Area-to-Pressing Cylinder" style="stroke:#181818;stroke-width:1;"/><polygon fill="#181818" points="588.71,553.9969,583.4434,545.6744,584.5508,551.2218,579.0034,552.3292,588.71,553.9969" style="stroke:#181818;stroke-width:1;"/><text fill="#000000" font-family="sans-serif" font-size="13" font-weight="bold" lengthAdjust="spacing" textLength="180.5908" x="566.54" y="520.2538">Pressing/Opening Action</text></g><!--link Processing Area to Processed Material--><g class="link" data-entity-1="Processing Area" data-entity-2="Processed Material" data-source-line="44" data-uid="lnk27" id="link_Processing Area_Processed Material"><path d="M705.59,475.4269 C726.92,490.2769 756.21,509.6269 783.54,524.1869 C803.8,534.9869 821.2448,542.9455 841.8148,551.4455" fill="none" id="Processing Area-to-Processed Material" style="stroke:#181818;stroke-width:1;"/><polygon fill="#181818" points="847.36,553.7369,840.5698,546.6029,842.739,551.8274,837.5146,553.9966,847.36,553.7369" style="stroke:#181818;stroke-width:1;"/><text fill="#000000" font-family="sans-serif" font-size="13" lengthAdjust="spacing" textLength="111.1475" x="784.54" y="520.2538">Finished Material</text></g><!--link Processing Area to GMN28--><g class="link" data-entity-1="Processing Area" data-entity-2="GMN28" data-source-line="46" data-uid="lnk30" id="link_Processing Area_GMN28"><path d="M695.88,428.4669 C720.2,403.5469 762.49,365.7569 808.04,350.3969 C875.42,327.6569 1059.29,332.1969 1128.04,350.3969 C1187.33,366.0969 1247.53,406.5769 1280.64,431.4669" fill="none" id="Processing Area-GMN28" style="stroke:#181818;stroke-width:1;stroke-dasharray:7,7;"/></g><!--reverse link Cooling System to Processed Material--><g class="link" data-entity-1="Cooling System" data-entity-2="Processed Material" data-source-line="57" data-uid="lnk32" id="link_Cooling System_Processed Material"><path d="M895.8596,481.0568 C900.2296,490.5468 902.18,496.4169 904.54,507.1869 C907.9,522.5569 908.34,540.3069 907.97,553.9769" fill="none" id="Cooling System-backto-Processed Material" style="stroke:#181818;stroke-width:1;"/><polygon fill="#181818" points="893.35,475.6069,893.4811,485.4549,895.4413,480.1485,900.7477,482.1087,893.35,475.6069" style="stroke:#181818;stroke-width:1;"/><text fill="#000000" font-family="sans-serif" font-size="13" lengthAdjust="spacing" textLength="127.0356" x="908.09" y="520.2538">**Pressing/Opening</text></g><!--link Speed to Pulling Mechanism--><g class="link" data-entity-1="Speed" data-entity-2="Pulling Mechanism" data-source-line="60" data-uid="lnk33" id="link_Speed_Pulling Mechanism"><path d="M107.77,263.1069 C117.16,242.6969 133.86,214.5069 158.54,201.5969 C209.04,175.1769 617.19,184.4169 671.54,201.5969 C710.34,213.8669 743.4624,238.5383 767.1224,259.2183" fill="none" id="Speed-to-Pulling Mechanism" style="stroke:#181818;stroke-width:1;stroke-dasharray:7,7;"/><polygon fill="#181818" points="771.64,263.1669,767.496,254.2323,767.8753,259.8764,762.2312,260.2557,771.64,263.1669" style="stroke:#181818;stroke-width:1;"/><text fill="#000000" font-family="sans-serif" font-size="13" lengthAdjust="spacing" textLength="141.3813" x="409.04" y="189.6638">Pulled Material Speed</text></g><!--link Hot Material to Speed--><g class="link" data-entity-1="Hot Material" data-entity-2="Speed" data-source-line="61" data-uid="lnk34" id="link_Hot Material_Speed"><path d="M733.39,140.0569 C693.14,150.4369 639.69,162.6569 591.54,168.5969 C444.16,186.7669 404.66,156.5169 257.54,176.5969 C212.57,182.7369 196.01,175.9969 158.54,201.5969 C135.87,217.0869 121.6292,238.7942 111.6192,258.0342" fill="none" id="Hot Material-to-Speed" style="stroke:#181818;stroke-width:1;stroke-dasharray:7,7;"/><polygon fill="#181818" points="108.85,263.3569,116.5523,257.219,111.1577,258.9213,109.4554,253.5266,108.85,263.3569" style="stroke:#181818;stroke-width:1;"/><text fill="#000000" font-family="sans-serif" font-size="13" lengthAdjust="spacing" textLength="141.3813" x="258.54" y="189.6638">Pulled Material Speed</text></g><!--link Speed to Moving Rails--><g class="link" data-entity-1="Speed" data-entity-2="Moving Rails" data-source-line="62" data-uid="lnk35" id="link_Speed_Moving Rails"><path d="M77.25,310.2969 C64.78,325.1269 50.19,345.6569 43.54,366.8969 C25.95,422.9969 6,453.9269 43.54,499.1869 C86.71,551.2469 279.0883,568.0916 383.2483,573.5716" fill="none" id="Speed-to-Moving Rails" style="stroke:#181818;stroke-width:1;stroke-dasharray:7,7;"/><polygon fill="#181818" points="389.24,573.8869,380.4626,569.4196,384.2469,573.6242,380.0423,577.4085,389.24,573.8869" style="stroke:#181818;stroke-width:1;"/><text fill="#000000" font-family="sans-serif" font-size="13" lengthAdjust="spacing" textLength="141.3813" x="44.54" y="456.6038">Pulled Material Speed</text></g><!--link Rail Position to Moving Rails--><g class="link" data-entity-1="Rail Position" data-entity-2="Moving Rails" data-source-line="63" data-uid="lnk36" id="link_Rail Position_Moving Rails"><path d="M226.8,310.3569 C206.98,352.0469 172.9,441.9969 214.54,499.1869 C254.12,553.5669 326.7919,569.9048 383.0619,574.7248" fill="none" id="Rail Position-to-Moving Rails" style="stroke:#181818;stroke-width:1;stroke-dasharray:7,7;"/><polygon fill="#181818" points="389.04,575.2369,380.4142,570.4834,384.0582,574.8101,379.7315,578.4542,389.04,575.2369" style="stroke:#181818;stroke-width:1;"/><text fill="#000000" font-family="sans-serif" font-size="13" lengthAdjust="spacing" textLength="126.8833" x="215.54" y="456.6038">Initial/Final position</text></g><!--link Cylinder to Pressing Cylinder--><g class="link" data-entity-1="Cylinder" data-entity-2="Pressing Cylinder" data-source-line="64" data-uid="lnk37" id="link_Cylinder_Pressing Cylinder"><path d="M381.87,310.3269 C375.47,358.7469 368.53,472.3469 433.54,524.1869 C438.51,528.1569 493.4636,542.2841 546.7336,555.3841" fill="none" id="Cylinder-to-Pressing Cylinder" style="stroke:#181818;stroke-width:1;stroke-dasharray:7,7;"/><polygon fill="#181818" points="552.56,556.8169,544.7756,550.7834,547.7047,555.6229,542.8652,558.5519,552.56,556.8169" style="stroke:#181818;stroke-width:1;"/><text fill="#000000" font-family="sans-serif" font-size="13" lengthAdjust="spacing" textLength="158.1836" x="410.81" y="456.6038">Pressing/Opening action</text></g><!--link Temperature Control to Infrared Lamp--><g class="link" data-entity-1="Temperature Control" data-entity-2="Infrared Lamp" data-source-line="65" data-uid="lnk38" id="link_Temperature Control_Infrared Lamp"><path d="M600.11,310.2669 C634.21,330.6069 679.86,357.5569 684.54,358.8969 C715.43,367.7069 943.93,354.4369 973.54,366.8969 C1003.95,379.6869 1026.1515,403.6584 1041.5815,423.9784" fill="none" id="Temperature Control-to-Infrared Lamp" style="stroke:#181818;stroke-width:1;stroke-dasharray:7,7;"/><polygon fill="#181818" points="1045.21,428.7569,1042.9528,419.1702,1042.1862,424.7748,1036.5816,424.0082,1045.21,428.7569" style="stroke:#181818;stroke-width:1;"/><text fill="#000000" font-family="sans-serif" font-size="13" lengthAdjust="spacing" textLength="174.6431" x="685.54" y="354.9638">Temperature Manegement</text></g><!--link Temperature Control to Cooling System--><g class="link" data-entity-1="Temperature Control" data-entity-2="Cooling System" data-source-line="66" data-uid="lnk39" id="link_Temperature Control_Cooling System"><path d="M502.94,310.2369 C476.56,323.3869 455.03,340.9069 472.54,358.8969 C483.93,370.6069 751.07,361.6069 766.54,366.8969 C803.29,379.4569 833.8556,404.1291 855.3756,424.5291" fill="none" id="Temperature Control-to-Cooling System" style="stroke:#181818;stroke-width:1;stroke-dasharray:7,7;"/><polygon fill="#181818" points="859.73,428.6569,855.9502,419.5622,856.1013,425.217,850.4465,425.3681,859.73,428.6569" style="stroke:#181818;stroke-width:1;"/><text fill="#000000" font-family="sans-serif" font-size="13" lengthAdjust="spacing" textLength="174.6431" x="473.54" y="354.9638">Temperature Manegement</text></g><g class="legend" data-source-line="51"><rect fill="#DDDDDD" height="75.1875" rx="7.5" ry="7.5" style="stroke:#000000;stroke-width:1;" width="273.9902" x="1155.4156" y="633.4869"/><text fill="#000000" font-family="sans-serif" font-size="14" lengthAdjust="spacing" textLength="148.0322" x="1160.4156" y="651.482">- [] : State or Product</text><text fill="#000000" font-family="sans-serif" font-size="14" lengthAdjust="spacing" textLength="250.3936" x="1160.4156" y="667.7789">- component : Machinery or System</text><text fill="#000000" font-family="sans-serif" font-size="14" lengthAdjust="spacing" textLength="138.2363" x="1160.4156" y="684.0757">- --&gt; : Material Flow</text><text fill="#000000" font-family="sans-serif" font-size="14" lengthAdjust="spacing" textLength="263.9902" x="1160.4156" y="700.3726">- .&gt; : Mechanical Action or Movement</text></g><!--SRC=[VLN1Rjim3BthAuXU2WH8UkzXmD2jQB063TRSWc3GR2OMO4k69BVBYltxICfE7DlfAJ95FfAFJymjR4mi4TmUOe6G6ttmkb9HZD__HDy4uonecyDAH_H6bx3sBiCGZ3t0O-dUbRg5RxWtraHo3HrKfOs5p5MrisXZKATZWitHmuS2s3wvU8BUgNyzloVTb2_xFUW0DtoUyyVhCKIiRbBikYbBBcE5MQ6j2TKbmDfJcHAUJYkT5SPY5-pR9XwE14BrxDYwSczi-wbD6NR9xTJjLuzwfoW5sU7S6zLaiy8xQ_vgfk13hhUlDMA-IsU6WxKBGb5hwwUbpmrMDNeT6u_mu6pqhfHSbwbwNhzQBsbm8lgchMDfzrvxpE5PLtMNspaXBh79hD4GJmFUqrHbv3gJaQhjfa1VkRhK8PhiF2wOVnaC4Ev7Ei5S3Npc73QU7SNEPilGwIEVpTIWU9WtzLJA7uWrO_LOK4fQSczOCM_SJM-IhKOx33LLJQfoC7rAngvuVWv9_Y7pfcQo6BfgimQW9y1vH6fg33RFtRlbD1UgIppOkeadoJ0LrwF7IXQ8pdptKgELiAp5cWBhTTlhZf4UwMc7ej-oTH71cqCHkTtn4s6DRMG7j58m0Ugs5S8nDZhXfHPUs9ld8rzq_ViebrdRp48XNN9AfleP3_IfIlb9DH307BPSwMkaXE0yZpflidHpVZpttGRmHtPAuXSVxhwdN5bhR5-8EMaYeul480TtofBYKZLgahzMieCNDpqWQd2mIpgblXUkPBu4NxMx1HRI_-BQQnee5IHg-1ZF62terRXHqg5ghyHTBZzOJ8Kk-Tz3btUaDGhijABEIpA5JIfzH6DQMsfofIQSmLgvxsyEgj_IF6Mudq2C1pgDyHy0]--></g></svg>