<svg xmlns="http://www.w3.org/2000/svg" xmlns:xlink="http://www.w3.org/1999/xlink" contentStyleType="text/css" data-diagram-type="DESCRIPTION" height="770px" preserveAspectRatio="none" style="width:1413px;height:770px;background:#FFFFFF;" version="1.1" viewBox="0 0 1413 770" width="1413px" zoomAndPan="magnify"><title>Extrusion and Material Processing Flow</title><defs/><g><g class="title" data-source-line="2"><text fill="#000000" font-family="sans-serif" font-size="14" font-weight="bold" lengthAdjust="spacing" textLength="312.2656" x="543.8238" y="22.9951">Extrusion and Material Processing Flow</text></g><!--cluster Extruder--><g class="cluster" data-entity="Extruder" data-source-line="5" data-uid="ent0002" id="cluster_Extruder"><rect fill="none" height="116.3" rx="2.5" ry="2.5" style="stroke:#181818;stroke-width:1;" width="158" x="473.24" y="87.8269"/><rect fill="none" height="10" style="stroke:#181818;stroke-width:1;" width="15" x="611.24" y="92.8269"/><rect fill="none" height="2" style="stroke:#181818;stroke-width:1;" width="4" x="609.24" y="94.8269"/><rect fill="none" height="2" style="stroke:#181818;stroke-width:1;" width="4" x="609.24" y="98.8269"/><text fill="#000000" font-family="sans-serif" font-size="14" font-weight="bold" lengthAdjust="spacing" textLength="68.5781" x="517.9509" y="113.822">Extruder</text></g><!--cluster HaulOff--><g class="cluster" data-entity="HaulOff" data-source-line="8" data-uid="ent0004" id="cluster_HaulOff"><rect fill="none" height="116.3" rx="2.5" ry="2.5" style="stroke:#181818;stroke-width:1;" width="202" x="350.24" y="253.1269"/><rect fill="none" height="10" style="stroke:#181818;stroke-width:1;" width="15" x="532.24" y="258.1269"/><rect fill="none" height="2" style="stroke:#181818;stroke-width:1;" width="4" x="530.24" y="260.1269"/><rect fill="none" height="2" style="stroke:#181818;stroke-width:1;" width="4" x="530.24" y="264.1269"/><text fill="#000000" font-family="sans-serif" font-size="14" font-weight="bold" lengthAdjust="spacing" textLength="129.0146" x="386.7327" y="279.122">Haul-Off System</text></g><!--cluster Press--><g class="cluster" data-entity="Press" data-source-line="11" data-uid="ent0006" id="cluster_Press"><rect fill="none" height="239.59" rx="2.5" ry="2.5" style="stroke:#181818;stroke-width:1;" width="393" x="195.24" y="418.4269"/><rect fill="none" height="10" style="stroke:#181818;stroke-width:1;" width="15" x="568.24" y="423.4269"/><rect fill="none" height="2" style="stroke:#181818;stroke-width:1;" width="4" x="566.24" y="425.4269"/><rect fill="none" height="2" style="stroke:#181818;stroke-width:1;" width="4" x="566.24" y="429.4269"/><text fill="#000000" font-family="sans-serif" font-size="14" font-weight="bold" lengthAdjust="spacing" textLength="114.1055" x="334.6873" y="444.422">Press Machine</text></g><!--cluster Synchronization--><g class="cluster" data-entity="Synchronization" data-source-line="18" data-uid="ent0010" id="cluster_Synchronization"><rect fill="none" height="116.3" rx="2.5" ry="2.5" style="stroke:#181818;stroke-width:1;" width="631" x="655.24" y="87.8269"/><rect fill="none" height="10" style="stroke:#181818;stroke-width:1;" width="15" x="1266.24" y="92.8269"/><rect fill="none" height="2" style="stroke:#181818;stroke-width:1;" width="4" x="1264.24" y="94.8269"/><rect fill="none" height="2" style="stroke:#181818;stroke-width:1;" width="4" x="1264.24" y="98.8269"/><text fill="#000000" font-family="sans-serif" font-size="14" font-weight="bold" lengthAdjust="spacing" textLength="127.4014" x="907.0393" y="113.822">Synchronization</text></g><!--entity Hot Material--><g class="entity" data-entity="Hot Material" data-source-line="6" data-uid="ent0003" id="entity_Hot Material"><rect fill="#F1F1F1" height="46.2969" rx="2.5" ry="2.5" style="stroke:#181818;stroke-width:0.5;" width="125.9072" x="489.29" y="141.8269"/><rect fill="#F1F1F1" height="10" style="stroke:#181818;stroke-width:0.5;" width="15" x="595.1972" y="146.8269"/><rect fill="#F1F1F1" height="2" style="stroke:#181818;stroke-width:0.5;" width="4" x="593.1972" y="148.8269"/><rect fill="#F1F1F1" height="2" style="stroke:#181818;stroke-width:0.5;" width="4" x="593.1972" y="152.8269"/><text fill="#000000" font-family="sans-serif" font-size="14" lengthAdjust="spacing" textLength="85.9072" x="504.29" y="174.822">Hot Material</text></g><!--entity Pulling Mechanism--><g class="entity" data-entity="Pulling Mechanism" data-source-line="9" data-uid="ent0005" id="entity_Pulling Mechanism"><rect fill="#F1F1F1" height="46.2969" rx="2.5" ry="2.5" style="stroke:#181818;stroke-width:0.5;" width="170.7305" x="365.88" y="307.1269"/><rect fill="#F1F1F1" height="10" style="stroke:#181818;stroke-width:0.5;" width="15" x="516.6105" y="312.1269"/><rect fill="#F1F1F1" height="2" style="stroke:#181818;stroke-width:0.5;" width="4" x="514.6105" y="314.1269"/><rect fill="#F1F1F1" height="2" style="stroke:#181818;stroke-width:0.5;" width="4" x="514.6105" y="318.1269"/><text fill="#000000" font-family="sans-serif" font-size="14" lengthAdjust="spacing" textLength="130.7305" x="380.88" y="340.122">Pulling Mechanism</text></g><!--entity Pressing Cylinder--><g class="entity" data-entity="Pressing Cylinder" data-source-line="12" data-uid="ent0007" id="entity_Pressing Cylinder"><rect fill="#F1F1F1" height="46.2969" rx="2.5" ry="2.5" style="stroke:#181818;stroke-width:0.5;" width="161.4678" x="231.51" y="595.7169"/><rect fill="#F1F1F1" height="10" style="stroke:#181818;stroke-width:0.5;" width="15" x="372.9778" y="600.7169"/><rect fill="#F1F1F1" height="2" style="stroke:#181818;stroke-width:0.5;" width="4" x="370.9778" y="602.7169"/><rect fill="#F1F1F1" height="2" style="stroke:#181818;stroke-width:0.5;" width="4" x="370.9778" y="606.7169"/><text fill="#000000" font-family="sans-serif" font-size="14" lengthAdjust="spacing" textLength="121.4678" x="246.51" y="628.712">Pressing Cylinder</text></g><!--entity Moving Rails--><g class="entity" data-entity="Moving Rails" data-source-line="13" data-uid="ent0008" id="entity_Moving Rails"><rect fill="#F1F1F1" height="46.2969" rx="2.5" ry="2.5" style="stroke:#181818;stroke-width:0.5;" width="128.4092" x="444.04" y="595.7169"/><rect fill="#F1F1F1" height="10" style="stroke:#181818;stroke-width:0.5;" width="15" x="552.4492" y="600.7169"/><rect fill="#F1F1F1" height="2" style="stroke:#181818;stroke-width:0.5;" width="4" x="550.4492" y="602.7169"/><rect fill="#F1F1F1" height="2" style="stroke:#181818;stroke-width:0.5;" width="4" x="550.4492" y="606.7169"/><text fill="#000000" font-family="sans-serif" font-size="14" lengthAdjust="spacing" textLength="88.4092" x="459.04" y="628.712">Moving Rails</text></g><!--entity Processing Area--><g class="entity" data-entity="Processing Area" data-source-line="14" data-uid="ent0009" id="entity_Processing Area"><rect fill="#F1F1F1" height="46.2969" rx="2.5" ry="2.5" style="stroke:#181818;stroke-width:0.5;" width="152.2871" x="375.1" y="472.4269"/><rect fill="#F1F1F1" height="10" style="stroke:#181818;stroke-width:0.5;" width="15" x="507.3871" y="477.4269"/><rect fill="#F1F1F1" height="2" style="stroke:#181818;stroke-width:0.5;" width="4" x="505.3871" y="479.4269"/><rect fill="#F1F1F1" height="2" style="stroke:#181818;stroke-width:0.5;" width="4" x="505.3871" y="483.4269"/><text fill="#000000" font-family="sans-serif" font-size="14" lengthAdjust="spacing" textLength="112.2871" x="390.1" y="505.422">Processing Area</text></g><!--entity Speed--><g class="entity" data-entity="Speed" data-source-line="19" data-uid="ent0011" id="entity_Speed"><rect fill="#F1F1F1" height="46.2969" rx="2.5" ry="2.5" style="stroke:#181818;stroke-width:0.5;" width="83.8867" x="1025.3" y="141.8269"/><rect fill="#F1F1F1" height="10" style="stroke:#181818;stroke-width:0.5;" width="15" x="1089.1867" y="146.8269"/><rect fill="#F1F1F1" height="2" style="stroke:#181818;stroke-width:0.5;" width="4" x="1087.1867" y="148.8269"/><rect fill="#F1F1F1" height="2" style="stroke:#181818;stroke-width:0.5;" width="4" x="1087.1867" y="152.8269"/><text fill="#000000" font-family="sans-serif" font-size="14" lengthAdjust="spacing" textLength="43.8867" x="1040.3" y="174.822">Speed</text></g><!--entity Rail Position--><g class="entity" data-entity="Rail Position" data-source-line="20" data-uid="ent0012" id="entity_Rail Position"><rect fill="#F1F1F1" height="46.2969" rx="2.5" ry="2.5" style="stroke:#181818;stroke-width:0.5;" width="125.5449" x="1144.47" y="141.8269"/><rect fill="#F1F1F1" height="10" style="stroke:#181818;stroke-width:0.5;" width="15" x="1250.0149" y="146.8269"/><rect fill="#F1F1F1" height="2" style="stroke:#181818;stroke-width:0.5;" width="4" x="1248.0149" y="148.8269"/><rect fill="#F1F1F1" height="2" style="stroke:#181818;stroke-width:0.5;" width="4" x="1248.0149" y="152.8269"/><text fill="#000000" font-family="sans-serif" font-size="14" lengthAdjust="spacing" textLength="85.5449" x="1159.47" y="174.822">Rail Position</text></g><!--entity Cylinder--><g class="entity" data-entity="Cylinder" data-source-line="21" data-uid="ent0013" id="entity_Cylinder"><rect fill="#F1F1F1" height="46.2969" rx="2.5" ry="2.5" style="stroke:#181818;stroke-width:0.5;" width="97.9688" x="892.26" y="141.8269"/><rect fill="#F1F1F1" height="10" style="stroke:#181818;stroke-width:0.5;" width="15" x="970.2288" y="146.8269"/><rect fill="#F1F1F1" height="2" style="stroke:#181818;stroke-width:0.5;" width="4" x="968.2288" y="148.8269"/><rect fill="#F1F1F1" height="2" style="stroke:#181818;stroke-width:0.5;" width="4" x="968.2288" y="152.8269"/><text fill="#000000" font-family="sans-serif" font-size="14" lengthAdjust="spacing" textLength="57.9688" x="907.26" y="174.822">Cylinder</text></g><!--entity Temperature Control--><g class="entity" data-entity="Temperature Control" data-source-line="22" data-uid="ent0014" id="entity_Temperature Control"><rect fill="#F1F1F1" height="46.2969" rx="2.5" ry="2.5" style="stroke:#181818;stroke-width:0.5;" width="186.7334" x="670.88" y="141.8269"/><rect fill="#F1F1F1" height="10" style="stroke:#181818;stroke-width:0.5;" width="15" x="837.6134" y="146.8269"/><rect fill="#F1F1F1" height="2" style="stroke:#181818;stroke-width:0.5;" width="4" x="835.6134" y="148.8269"/><rect fill="#F1F1F1" height="2" style="stroke:#181818;stroke-width:0.5;" width="4" x="835.6134" y="152.8269"/><text fill="#000000" font-family="sans-serif" font-size="14" lengthAdjust="spacing" textLength="146.7334" x="685.88" y="174.822">Temperature Control</text></g><!--entity Thermoplastic Material--><g class="entity" data-entity="Thermoplastic Material" data-source-line="27" data-uid="ent0015" id="entity_Thermoplastic Material"><rect fill="#F1F1F1" height="46.2969" rx="2.5" ry="2.5" style="stroke:#181818;stroke-width:0.5;" width="201.0479" x="128.72" y="141.8269"/><rect fill="#F1F1F1" height="10" style="stroke:#181818;stroke-width:0.5;" width="15" x="309.7679" y="146.8269"/><rect fill="#F1F1F1" height="2" style="stroke:#181818;stroke-width:0.5;" width="4" x="307.7679" y="148.8269"/><rect fill="#F1F1F1" height="2" style="stroke:#181818;stroke-width:0.5;" width="4" x="307.7679" y="152.8269"/><text fill="#000000" font-family="sans-serif" font-size="14" lengthAdjust="spacing" textLength="161.0479" x="143.72" y="174.822">Thermoplastic Material</text></g><!--entity Infrared Lamp--><g class="entity" data-entity="Infrared Lamp" data-source-line="29" data-uid="ent0018" id="entity_Infrared Lamp"><rect fill="#F1F1F1" height="46.2969" rx="2.5" ry="2.5" style="stroke:#181818;stroke-width:0.5;" width="138.875" x="622.81" y="307.1269"/><rect fill="#F1F1F1" height="10" style="stroke:#181818;stroke-width:0.5;" width="15" x="741.685" y="312.1269"/><rect fill="#F1F1F1" height="2" style="stroke:#181818;stroke-width:0.5;" width="4" x="739.685" y="314.1269"/><rect fill="#F1F1F1" height="2" style="stroke:#181818;stroke-width:0.5;" width="4" x="739.685" y="318.1269"/><text fill="#000000" font-family="sans-serif" font-size="14" lengthAdjust="spacing" textLength="98.875" x="637.81" y="340.122">Infrared Lamp</text></g><!--entity Processed Material--><g class="entity" data-entity="Processed Material" data-source-line="40" data-uid="ent0023" id="entity_Processed Material"><rect fill="#F1F1F1" height="46.2969" rx="2.5" ry="2.5" style="stroke:#181818;stroke-width:0.5;" width="172.4873" x="7" y="595.7169"/><rect fill="#F1F1F1" height="10" style="stroke:#181818;stroke-width:0.5;" width="15" x="159.4873" y="600.7169"/><rect fill="#F1F1F1" height="2" style="stroke:#181818;stroke-width:0.5;" width="4" x="157.4873" y="602.7169"/><rect fill="#F1F1F1" height="2" style="stroke:#181818;stroke-width:0.5;" width="4" x="157.4873" y="606.7169"/><text fill="#000000" font-family="sans-serif" font-size="14" lengthAdjust="spacing" textLength="132.4873" x="22" y="628.712">Processed Material</text></g><g class="entity" data-entity="GMN25" data-source-line="42" data-uid="ent0026" id="entity_GMN25"><path d="M604.38,475.4369 L604.38,491.5669 L527.87,495.5669 L604.38,499.5669 L604.38,515.7025 A0,0 0 0 0 604.38,515.7025 L888.1158,515.7025 A0,0 0 0 0 888.1158,515.7025 L888.1158,485.4369 L878.1158,475.4369 L604.38,475.4369 A0,0 0 0 0 604.38,475.4369" fill="#FEFFDD" style="stroke:#181818;stroke-width:0.5;"/><path d="M878.1158,475.4369 L878.1158,485.4369 L888.1158,485.4369 L878.1158,475.4369" fill="#FEFFDD" style="stroke:#181818;stroke-width:0.5;"/><text fill="#000000" font-family="sans-serif" font-size="13" lengthAdjust="spacing" textLength="262.7358" x="610.38" y="492.5038">The material is positioned into the press</text><text fill="#000000" font-family="sans-serif" font-size="13" lengthAdjust="spacing" textLength="185.688" x="610.38" y="507.6366">and pressed by the cylinder.</text></g><!--link Thermoplastic Material to Hot Material--><g class="link" data-entity-1="Thermoplastic Material" data-entity-2="Hot Material" data-source-line="27" data-uid="lnk16" id="link_Thermoplastic Material_Hot Material"><path d="M330.11,164.9769 C382.13,164.9769 437.96,164.9769 483.16,164.9769" fill="none" id="Thermoplastic Material-to-Hot Material" style="stroke:#181818;stroke-width:1;"/><polygon fill="#181818" points="489.16,164.9769,480.16,160.9769,484.16,164.9769,480.16,168.9769,489.16,164.9769" style="stroke:#181818;stroke-width:1;"/><text fill="#000000" font-family="sans-serif" font-size="13" lengthAdjust="spacing" textLength="123.0239" x="348.03" y="158.0438">Material Processed</text></g><!--link Hot Material to Pulling Mechanism--><g class="link" data-entity-1="Hot Material" data-entity-2="Pulling Mechanism" data-source-line="28" data-uid="lnk17" id="link_Hot Material_Pulling Mechanism"><path d="M489.01,179.2169 C466.89,187.2169 444.32,199.9469 431.24,220.1269 C414.17,246.4769 424.2889,278.1443 435.8289,301.5743" fill="none" id="Hot Material-to-Pulling Mechanism" style="stroke:#181818;stroke-width:1;"/><polygon fill="#181818" points="438.48,306.9569,438.0918,297.1157,436.2708,302.4714,430.915,300.6504,438.48,306.9569" style="stroke:#181818;stroke-width:1;"/><text fill="#000000" font-family="sans-serif" font-size="13" font-weight="bold" lengthAdjust="spacing" textLength="83.6748" x="432.24" y="233.1938">Is Extruded</text></g><!--link Infrared Lamp to Hot Material--><g class="link" data-entity-1="Infrared Lamp" data-entity-2="Hot Material" data-source-line="29" data-uid="lnk19" id="link_Infrared Lamp_Hot Material"><path d="M656.78,306.7169 C632.78,289.9569 601.82,265.2069 581.24,237.1269 C570.52,222.4969 564.8281,209.0448 560.1381,194.2948" fill="none" id="Infrared Lamp-to-Hot Material" style="stroke:#181818;stroke-width:1;"/><polygon fill="#181818" points="558.32,188.5769,557.2352,198.3658,559.8351,193.3418,564.8591,195.9417,558.32,188.5769" style="stroke:#181818;stroke-width:1;"/><text fill="#000000" font-family="sans-serif" font-size="13" lengthAdjust="spacing" textLength="141.8511" x="582.24" y="233.1938">Keeping Temperature</text></g><!--link Pulling Mechanism to Processing Area--><g class="link" data-entity-1="Pulling Mechanism" data-entity-2="Processing Area" data-source-line="34" data-uid="lnk20" id="link_Pulling Mechanism_Processing Area"><path d="M451.24,353.6369 C451.24,384.7369 451.24,434.7269 451.24,465.9569" fill="none" id="Pulling Mechanism-to-Processing Area" style="stroke:#181818;stroke-width:1;"/><polygon fill="#181818" points="451.24,471.9569,455.24,462.9569,451.24,466.9569,447.24,462.9569,451.24,471.9569" style="stroke:#181818;stroke-width:1;"/><text fill="#000000" font-family="sans-serif" font-size="13" lengthAdjust="spacing" textLength="96.4971" x="452.24" y="398.4938">Pulled Material</text></g><!--link Processing Area to Moving Rails--><g class="link" data-entity-1="Processing Area" data-entity-2="Moving Rails" data-source-line="37" data-uid="lnk21" id="link_Processing Area_Moving Rails"><path d="M461.83,519.1069 C472.07,540.8869 484.9374,568.2869 495.1574,590.0269" fill="none" id="Processing Area-to-Moving Rails" style="stroke:#181818;stroke-width:1;"/><polygon fill="#181818" points="497.71,595.4569,497.501,585.6102,495.5828,590.9319,490.2611,589.0137,497.71,595.4569" style="stroke:#181818;stroke-width:1;"/><text fill="#000000" font-family="sans-serif" font-size="13" font-weight="bold" lengthAdjust="spacing" textLength="102.9019" x="484.16" y="561.7838">Input Position</text></g><!--link Processing Area to Pressing Cylinder--><g class="link" data-entity-1="Processing Area" data-entity-2="Pressing Cylinder" data-source-line="38" data-uid="lnk22" id="link_Processing Area_Pressing Cylinder"><path d="M374.8,501.2369 C342.03,507.4969 306.66,520.8469 286.24,548.7169 C276.01,562.6869 280.4486,576.1801 290.0986,590.5101" fill="none" id="Processing Area-to-Pressing Cylinder" style="stroke:#181818;stroke-width:1;"/><polygon fill="#181818" points="293.45,595.4869,291.7407,585.7875,290.6572,591.3396,285.1051,590.256,293.45,595.4869" style="stroke:#181818;stroke-width:1;"/><text fill="#000000" font-family="sans-serif" font-size="13" font-weight="bold" lengthAdjust="spacing" textLength="180.5908" x="287.24" y="561.7838">Pressing/Opening Action</text></g><!--link Processing Area to Processed Material--><g class="link" data-entity-1="Processing Area" data-entity-2="Processed Material" data-source-line="40" data-uid="lnk24" id="link_Processing Area_Processed Material"><path d="M374.75,497.5569 C313.49,501.2469 227.07,513.1369 160.24,548.7169 C139.44,559.7969 124.9206,574.9162 112.7506,590.5162" fill="none" id="Processing Area-to-Processed Material" style="stroke:#181818;stroke-width:1;"/><polygon fill="#181818" points="109.06,595.2469,117.7497,590.6112,112.1355,591.3046,111.442,585.6904,109.06,595.2469" style="stroke:#181818;stroke-width:1;"/><text fill="#000000" font-family="sans-serif" font-size="13" lengthAdjust="spacing" textLength="111.1475" x="161.24" y="561.7838">Finished Material</text></g><!--link Speed to Pulling Mechanism--><g class="link" data-entity-1="Speed" data-entity-2="Pulling Mechanism" data-source-line="55" data-uid="lnk28" id="link_Speed_Pulling Mechanism"><path d="M1042.36,188.4169 C1032.07,196.7869 1019.65,205.7869 1007.24,212.1269 C972.56,229.8569 961.71,231.0269 923.24,237.1269 C853.43,248.1969 673.51,226.7769 605.24,245.1269 C559.2,257.5069 516.8498,282.8057 487.0298,303.2357" fill="none" id="Speed-to-Pulling Mechanism" style="stroke:#181818;stroke-width:1;stroke-dasharray:7,7;"/><polygon fill="#181818" points="482.08,306.6269,491.7654,304.84,486.2048,303.8009,487.2439,298.2403,482.08,306.6269" style="stroke:#181818;stroke-width:1;"/><text fill="#000000" font-family="sans-serif" font-size="13" lengthAdjust="spacing" textLength="141.3813" x="991.53" y="233.1938">Pulled Material Speed</text></g><!--link Hot Material to Speed--><g class="link" data-entity-1="Hot Material" data-entity-2="Speed" data-source-line="56" data-uid="lnk29" id="link_Hot Material_Speed"><path d="M571.94,141.5069 C590.87,120.8969 621.52,92.3169 655.24,79.8269 C728.6,52.6669 938.08,43.2969 1007.24,79.8269 C1031.87,92.8369 1046.0648,115.5595 1055.4748,135.9395" fill="none" id="Hot Material-to-Speed" style="stroke:#181818;stroke-width:1;stroke-dasharray:7,7;"/><polygon fill="#181818" points="1057.99,141.3869,1057.8488,131.539,1055.894,136.8474,1050.5856,134.8926,1057.99,141.3869" style="stroke:#181818;stroke-width:1;"/><text fill="#000000" font-family="sans-serif" font-size="13" lengthAdjust="spacing" textLength="141.3813" x="749.74" y="67.8938">Pulled Material Speed</text></g><!--link Speed to Moving Rails--><g class="link" data-entity-1="Speed" data-entity-2="Moving Rails" data-source-line="57" data-uid="lnk30" id="link_Speed_Moving Rails"><path d="M1095.05,188.6269 C1104.99,196.3769 1116.41,204.9169 1127.24,212.1269 C1133.21,216.0969 1137.65,213.9269 1141.24,220.1269 C1145.04,226.6569 1141.96,229.6069 1141.24,237.1269 C1125.47,401.6269 1113.51,488.8069 967.24,565.7169 C900.25,600.9469 688.5266,612.3758 578.7566,616.0558" fill="none" id="Speed-to-Moving Rails" style="stroke:#181818;stroke-width:1;stroke-dasharray:7,7;"/><polygon fill="#181818" points="572.76,616.2569,581.889,619.9531,577.7572,616.0893,581.6209,611.9576,572.76,616.2569" style="stroke:#181818;stroke-width:1;"/><text fill="#000000" font-family="sans-serif" font-size="13" lengthAdjust="spacing" textLength="141.3813" x="1120.81" y="398.4938">Pulled Material Speed</text></g><!--link Rail Position to Moving Rails--><g class="link" data-entity-1="Rail Position" data-entity-2="Moving Rails" data-source-line="58" data-uid="lnk31" id="link_Rail Position_Moving Rails"><path d="M1223.67,188.3569 C1253.38,231.7769 1309.54,329.5869 1271.24,402.4269 C1228.81,483.1269 1180.86,472.5469 1102.24,518.7169 C1061.63,542.5769 1052.49,552.6169 1007.24,565.7169 C855.8,609.5569 675.0598,617.4227 578.6398,618.2927" fill="none" id="Rail Position-to-Moving Rails" style="stroke:#181818;stroke-width:1;stroke-dasharray:7,7;"/><polygon fill="#181818" points="572.64,618.3469,581.6757,622.2655,577.6398,618.3018,581.6035,614.2658,572.64,618.3469" style="stroke:#181818;stroke-width:1;"/><text fill="#000000" font-family="sans-serif" font-size="13" lengthAdjust="spacing" textLength="126.8833" x="1279.03" y="398.4938">Initial/Final position</text></g><!--link Cylinder to Pressing Cylinder--><g class="link" data-entity-1="Cylinder" data-entity-2="Pressing Cylinder" data-source-line="59" data-uid="lnk32" id="link_Cylinder_Pressing Cylinder"><path d="M942.35,188.4569 C945.28,258.5069 950.25,471.0469 905.24,518.7169 C831.24,597.1169 532.4,576.8769 426.24,595.7169 C415.62,597.6069 410.3547,598.5479 399.3447,600.6379" fill="none" id="Cylinder-to-Pressing Cylinder" style="stroke:#181818;stroke-width:1;stroke-dasharray:7,7;"/><polygon fill="#181818" points="393.45,601.7569,403.0381,604.0082,398.3623,600.8244,401.5461,596.1486,393.45,601.7569" style="stroke:#181818;stroke-width:1;"/><text fill="#000000" font-family="sans-serif" font-size="13" lengthAdjust="spacing" textLength="158.1836" x="940.87" y="398.4938">Pressing/Opening action</text></g><!--link Temperature Control to Infrared Lamp--><g class="link" data-entity-1="Temperature Control" data-entity-2="Infrared Lamp" data-source-line="60" data-uid="lnk33" id="link_Temperature Control_Infrared Lamp"><path d="M753.65,188.5769 C749.15,198.2669 743.88,209.7269 739.24,220.1269 C725.88,250.0869 713.3312,279.4125 703.9612,301.5225" fill="none" id="Temperature Control-to-Infrared Lamp" style="stroke:#181818;stroke-width:1;stroke-dasharray:7,7;"/><polygon fill="#181818" points="701.62,307.0469,708.8147,300.3211,703.571,302.4432,701.4488,297.1995,701.62,307.0469" style="stroke:#181818;stroke-width:1;"/><text fill="#000000" font-family="sans-serif" font-size="13" lengthAdjust="spacing" textLength="174.6431" x="740.24" y="233.1938">Temperature Manegement</text></g><g class="legend" data-source-line="47"><rect fill="#DDDDDD" height="75.1875" rx="7.5" ry="7.5" style="stroke:#000000;stroke-width:1;" width="273.9902" x="1113.9231" y="675.0169"/><text fill="#000000" font-family="sans-serif" font-size="14" lengthAdjust="spacing" textLength="148.0322" x="1118.9231" y="693.012">- [] : State or Product</text><text fill="#000000" font-family="sans-serif" font-size="14" lengthAdjust="spacing" textLength="250.3936" x="1118.9231" y="709.3089">- component : Machinery or System</text><text fill="#000000" font-family="sans-serif" font-size="14" lengthAdjust="spacing" textLength="138.2363" x="1118.9231" y="725.6057">- --&gt; : Material Flow</text><text fill="#000000" font-family="sans-serif" font-size="14" lengthAdjust="spacing" textLength="263.9902" x="1118.9231" y="741.9026">- .&gt; : Mechanical Action or Movement</text></g><!--SRC=[TLJ1Rjim3BthAuXU0WH8UizXmD2jQD063PRSWXmqcuu5o98XoSsoOly-Kh9ZrqvEbYdoaNnyr0psAcW4Mq0e4N8bJqvM8aJZpp_1DLvP0zBai941dP8QjivcwBqo9tZMzYp437vWeOmAvEexg4eg0vcjQclG12-knmIReuDF0N1uiU4AVHJ_1dulij7lHG7ImmEV5_opk_Y0rKEAtJPQSnaRp4ffbA- -0cmTbHd3qsaZir8Px89TsyJJXK2edYDRD_Q3RR-aqlwOtAxTVdSeZu9Ia1twtgWcavNE6lLNCWMVyVgmgn7pOpep76ojZnIrjc5Q-jrZLQEJeN48JzO4PtNADUkPBuZkE0kPHQx5OL-YgsojfGygwtc4nRSHix2Q311pCV9PSDYKL8gTpzU-6rm-dul3sXHEEipXJLPr6pbE-8fOCzAWDI5YG_O3AsQEUnaGt4gdmn2tQaarZeP2oTWLUvKcLVhCgPgfOkYgpUg1bCbveWB456oHsxFXD5_4a5WmTHEkasGYxaTF1HOXElFZUuqcXcKjrYsmGRU3xXZfcJREbyEMZGq8JftAmErEbSiwsyVLR8MWFDHjAuIZJB2Hbphomjuyd_X7rxylyJ9hcraAf4jEoLI_uOb-XOwVL0C1BE30bUu29GJhUDHvawMRVdrMtMAw2pkb3Oy-tFr0j_6rOViocfCcChf8379mfwnONAg6oXijQAUpSsarTnjf4kt2mZ9Mlxot2IETGOmQBrAFqOBUZPia7MlkJjpN5mMMjqBN_2HB_KXAeS1kqg9_ULBOJPrEL9gU777pdKeueoTXDTnxgj_GD7Wq_m40]--></g></svg>