<svg xmlns="http://www.w3.org/2000/svg" xmlns:xlink="http://www.w3.org/1999/xlink" contentStyleType="text/css" data-diagram-type="DESCRIPTION" height="613px" preserveAspectRatio="none" style="width:1023px;height:613px;" version="1.1" viewBox="0 0 1023 613" width="1023px" zoomAndPan="magnify"><defs/><g><!--cluster Interfaces_diagram--><g class="cluster" data-entity="Interfaces_diagram" data-source-line="4" data-uid="ent0002" id="cluster_Interfaces_diagram"><rect fill="none" height="539" rx="2.5" ry="2.5" style="stroke:#181818;stroke-width:1;" width="1010.07" x="7" y="39"/><rect fill="none" height="10" style="stroke:#181818;stroke-width:1;" width="15" x="997.07" y="44"/><rect fill="none" height="2" style="stroke:#181818;stroke-width:1;" width="4" x="995.07" y="46"/><rect fill="none" height="2" style="stroke:#181818;stroke-width:1;" width="4" x="995.07" y="50"/><text fill="#000000" font-family="sans-serif" font-size="14" font-weight="bold" lengthAdjust="spacing" textLength="152.1611" x="435.9544" y="64.9951">Interfaces_diagram</text></g><!--entity Cylinder--><g class="entity" data-entity="Cylinder" data-source-line="6" data-uid="ent0003" id="entity_Cylinder"><rect fill="#F1F1F1" height="46.2969" rx="2.5" ry="2.5" style="stroke:#181818;stroke-width:0.5;" width="97.9688" x="566.57" y="94.85"/><rect fill="#F1F1F1" height="10" style="stroke:#181818;stroke-width:0.5;" width="15" x="644.5388" y="99.85"/><rect fill="#F1F1F1" height="2" style="stroke:#181818;stroke-width:0.5;" width="4" x="642.5388" y="101.85"/><rect fill="#F1F1F1" height="2" style="stroke:#181818;stroke-width:0.5;" width="4" x="642.5388" y="105.85"/><text fill="#000000" font-family="sans-serif" font-size="14" lengthAdjust="spacing" textLength="57.9688" x="581.57" y="127.8451">Cylinder</text></g><!--entity contact\nsensor--><g class="entity" data-entity="contact.nsensor" data-source-line="7" data-uid="ent0004" id="entity_contact.nsensor"><ellipse cx="401.14" cy="158" fill="#F1F1F1" rx="8" ry="8" style="stroke:#181818;stroke-width:0.5;"/><text fill="#000000" font-family="sans-serif" font-size="14" lengthAdjust="spacing" textLength="52.3906" x="374.9447" y="187.9951">contact</text><text fill="#000000" font-family="sans-serif" font-size="14" lengthAdjust="spacing" textLength="46.3955" x="374.9447" y="204.292">sensor</text></g><!--entity Cylinder\npower--><g class="entity" data-entity="Cylinder.npower" data-source-line="10" data-uid="ent0006" id="entity_Cylinder.npower"><ellipse cx="766.56" cy="119" fill="#F1F1F1" rx="8" ry="8" style="stroke:#181818;stroke-width:0.5;"/><text fill="#000000" font-family="sans-serif" font-size="14" lengthAdjust="spacing" textLength="57.9688" x="737.5756" y="148.9951">Cylinder</text><text fill="#000000" font-family="sans-serif" font-size="14" lengthAdjust="spacing" textLength="43.2715" x="737.5756" y="165.292">power</text></g><!--entity room--><g class="entity" data-entity="room" data-source-line="10" data-uid="ent0007" id="entity_room"><ellipse cx="932.32" cy="237" fill="#F1F1F1" rx="8" ry="8" style="stroke:#181818;stroke-width:0.5;"/><text fill="#000000" font-family="sans-serif" font-size="14" lengthAdjust="spacing" textLength="36.5244" x="914.0578" y="266.9951">room</text></g><!--entity Haul_Off\npower--><g class="entity" data-entity="Haul_Off.npower" data-source-line="11" data-uid="ent0009" id="entity_Haul_Off.npower"><ellipse cx="766.56" cy="318" fill="#F1F1F1" rx="8" ry="8" style="stroke:#181818;stroke-width:0.5;"/><text fill="#000000" font-family="sans-serif" font-size="14" lengthAdjust="spacing" textLength="59.7461" x="736.687" y="347.9951">Haul_Off</text><text fill="#000000" font-family="sans-serif" font-size="14" lengthAdjust="spacing" textLength="43.2715" x="736.687" y="364.292">power</text></g><!--entity shape--><g class="entity" data-entity="shape" data-source-line="14" data-uid="ent0012" id="entity_shape"><ellipse cx="32" cy="199" fill="#F1F1F1" rx="8" ry="8" style="stroke:#181818;stroke-width:0.5;"/><text fill="#000000" font-family="sans-serif" font-size="14" lengthAdjust="spacing" textLength="42.2461" x="10.877" y="228.9951">shape</text></g><!--entity Haul_Off--><g class="entity" data-entity="Haul_Off" data-source-line="17" data-uid="ent0014" id="entity_Haul_Off"><rect fill="#F1F1F1" height="46.2969" rx="2.5" ry="2.5" style="stroke:#181818;stroke-width:0.5;" width="99.7461" x="565.69" y="386.85"/><rect fill="#F1F1F1" height="10" style="stroke:#181818;stroke-width:0.5;" width="15" x="645.4361" y="391.85"/><rect fill="#F1F1F1" height="2" style="stroke:#181818;stroke-width:0.5;" width="4" x="643.4361" y="393.85"/><rect fill="#F1F1F1" height="2" style="stroke:#181818;stroke-width:0.5;" width="4" x="643.4361" y="397.85"/><text fill="#000000" font-family="sans-serif" font-size="14" lengthAdjust="spacing" textLength="59.7461" x="580.69" y="419.8451">Haul_Off</text></g><!--entity Thermoplastic\nposition--><g class="entity" data-entity="Thermoplastic.nposition" data-source-line="18" data-uid="ent0015" id="entity_Thermoplastic.nposition"><ellipse cx="401.14" cy="410" fill="#F1F1F1" rx="8" ry="8" style="stroke:#181818;stroke-width:0.5;"/><text fill="#000000" font-family="sans-serif" font-size="14" lengthAdjust="spacing" textLength="99.7227" x="351.2787" y="439.9951">Thermoplastic</text><text fill="#000000" font-family="sans-serif" font-size="14" lengthAdjust="spacing" textLength="55.4531" x="351.2787" y="456.292">position</text></g><!--entity sensor\nposition--><g class="entity" data-entity="sensor.nposition" data-source-line="20" data-uid="ent0018" id="entity_sensor.nposition"><ellipse cx="766.56" cy="443" fill="#F1F1F1" rx="8" ry="8" style="stroke:#181818;stroke-width:0.5;"/><text fill="#000000" font-family="sans-serif" font-size="14" lengthAdjust="spacing" textLength="46.3955" x="738.8334" y="472.9951">sensor</text><text fill="#000000" font-family="sans-serif" font-size="14" lengthAdjust="spacing" textLength="55.4531" x="738.8334" y="489.292">position</text></g><!--entity Thermoplastic--><g class="entity" data-entity="Thermoplastic" data-source-line="21" data-uid="ent0020" id="entity_Thermoplastic"><rect fill="#F1F1F1" height="46.2969" rx="2.5" ry="2.5" style="stroke:#181818;stroke-width:0.5;" width="139.7227" x="101" y="426.85"/><rect fill="#F1F1F1" height="10" style="stroke:#181818;stroke-width:0.5;" width="15" x="220.7227" y="431.85"/><rect fill="#F1F1F1" height="2" style="stroke:#181818;stroke-width:0.5;" width="4" x="218.7227" y="433.85"/><rect fill="#F1F1F1" height="2" style="stroke:#181818;stroke-width:0.5;" width="4" x="218.7227" y="437.85"/><text fill="#000000" font-family="sans-serif" font-size="14" lengthAdjust="spacing" textLength="99.7227" x="116" y="459.8451">Thermoplastic</text></g><!--entity press--><g class="entity" data-entity="press" data-source-line="24" data-uid="ent0022" id="entity_press"><rect fill="#F1F1F1" height="46.2969" rx="2.5" ry="2.5" style="stroke:#181818;stroke-width:0.5;" width="77.8438" x="131.94" y="175.85"/><rect fill="#F1F1F1" height="10" style="stroke:#181818;stroke-width:0.5;" width="15" x="189.7838" y="180.85"/><rect fill="#F1F1F1" height="2" style="stroke:#181818;stroke-width:0.5;" width="4" x="187.7838" y="182.85"/><rect fill="#F1F1F1" height="2" style="stroke:#181818;stroke-width:0.5;" width="4" x="187.7838" y="186.85"/><text fill="#000000" font-family="sans-serif" font-size="14" lengthAdjust="spacing" textLength="37.8438" x="146.94" y="208.8451">press</text></g><!--entity Infrared_lamp--><g class="entity" data-entity="Infrared_lamp" data-source-line="30" data-uid="ent0027" id="entity_Infrared_lamp"><rect fill="#F1F1F1" height="46.2969" rx="2.5" ry="2.5" style="stroke:#181818;stroke-width:0.5;" width="137.5146" x="863.56" y="397.85"/><rect fill="#F1F1F1" height="10" style="stroke:#181818;stroke-width:0.5;" width="15" x="981.0746" y="402.85"/><rect fill="#F1F1F1" height="2" style="stroke:#181818;stroke-width:0.5;" width="4" x="979.0746" y="404.85"/><rect fill="#F1F1F1" height="2" style="stroke:#181818;stroke-width:0.5;" width="4" x="979.0746" y="408.85"/><text fill="#000000" font-family="sans-serif" font-size="14" lengthAdjust="spacing" textLength="97.5146" x="878.56" y="430.8451">Infrared_lamp</text></g><!--entity Extruder--><g class="entity" data-entity="Extruder" data-source-line="34" data-uid="ent0030" id="entity_Extruder"><rect fill="#F1F1F1" height="46.2969" rx="2.5" ry="2.5" style="stroke:#181818;stroke-width:0.5;" width="100.5049" x="565.31" y="467.85"/><rect fill="#F1F1F1" height="10" style="stroke:#181818;stroke-width:0.5;" width="15" x="645.8149" y="472.85"/><rect fill="#F1F1F1" height="2" style="stroke:#181818;stroke-width:0.5;" width="4" x="643.8149" y="474.85"/><rect fill="#F1F1F1" height="2" style="stroke:#181818;stroke-width:0.5;" width="4" x="643.8149" y="478.85"/><text fill="#000000" font-family="sans-serif" font-size="14" lengthAdjust="spacing" textLength="60.5049" x="580.31" y="500.8451">Extruder</text></g><!--entity Rails--><g class="entity" data-entity="Rails" data-source-line="38" data-uid="ent0033" id="entity_Rails"><rect fill="#F1F1F1" height="46.2969" rx="2.5" ry="2.5" style="stroke:#181818;stroke-width:0.5;" width="73.3799" x="578.87" y="175.85"/><rect fill="#F1F1F1" height="10" style="stroke:#181818;stroke-width:0.5;" width="15" x="632.2499" y="180.85"/><rect fill="#F1F1F1" height="2" style="stroke:#181818;stroke-width:0.5;" width="4" x="630.2499" y="182.85"/><rect fill="#F1F1F1" height="2" style="stroke:#181818;stroke-width:0.5;" width="4" x="630.2499" y="186.85"/><text fill="#000000" font-family="sans-serif" font-size="14" lengthAdjust="spacing" textLength="33.3799" x="593.87" y="208.8451">Rails</text></g><!--entity Synchronization_Board--><g class="entity" data-entity="Synchronization_Board" data-source-line="42" data-uid="ent0036" id="entity_Synchronization_Board"><rect fill="#F1F1F1" height="46.2969" rx="2.5" ry="2.5" style="stroke:#181818;stroke-width:0.5;" width="200.8359" x="300.72" y="277.85"/><rect fill="#F1F1F1" height="10" style="stroke:#181818;stroke-width:0.5;" width="15" x="481.5559" y="282.85"/><rect fill="#F1F1F1" height="2" style="stroke:#181818;stroke-width:0.5;" width="4" x="479.5559" y="284.85"/><rect fill="#F1F1F1" height="2" style="stroke:#181818;stroke-width:0.5;" width="4" x="479.5559" y="288.85"/><text fill="#000000" font-family="sans-serif" font-size="14" lengthAdjust="spacing" textLength="160.8359" x="315.72" y="310.8451">Synchronization_Board</text></g><!--entity Safety_Alarm--><g class="entity" data-entity="Safety_Alarm" data-source-line="48" data-uid="ent0042" id="entity_Safety_Alarm"><ellipse cx="615.56" cy="286" fill="#F1F1F1" rx="8" ry="8" style="stroke:#181818;stroke-width:0.5;"/><text fill="#000000" font-family="sans-serif" font-size="14" lengthAdjust="spacing" textLength="93.2217" x="568.9492" y="315.9951">Safety_Alarm</text></g><!--entity energy--><g class="entity" data-entity="energy" data-source-line="52" data-uid="ent0044" id="entity_energy"><ellipse cx="932.32" cy="14" fill="#F1F1F1" rx="8" ry="8" style="stroke:#181818;stroke-width:0.5;"/><text fill="#000000" font-family="sans-serif" font-size="14" lengthAdjust="spacing" textLength="49.0273" x="907.8063" y="43.9951">energy</text></g><!--link contact\nsensor to Cylinder--><g class="link" data-entity-1="contact.nsensor" data-entity-2="Cylinder" data-source-line="7" data-uid="lnk5" id="link_contact.nsensor_Cylinder"><path d="M409.95,156.53 C434.88,151.84 513.93,136.95 566.16,127.11" fill="none" id="contact\nsensor-Cylinder" style="stroke:#181818;stroke-width:1;"/></g><!--link Cylinder\npower to room--><g class="link" data-entity-1="Cylinder.npower" data-entity-2="room" data-source-line="10" data-uid="lnk8" id="link_Cylinder.npower_room"><path d="M775.46,124.69 C803.06,144.58 895.04,210.86 923.11,231.09" fill="none" id="Cylinder\npower-room" style="stroke:#181818;stroke-width:1;"/></g><!--link Haul_Off\npower to room--><g class="link" data-entity-1="Haul_Off.npower" data-entity-2="room" data-source-line="11" data-uid="lnk10" id="link_Haul_Off.npower_room"><path d="M775.46,314.09 C803.06,300.44 895.04,254.94 923.11,241.06" fill="none" id="Haul_Off\npower-room" style="stroke:#181818;stroke-width:1;"/></g><!--link Cylinder to Cylinder\npower--><g class="link" data-entity-1="Cylinder" data-entity-2="Cylinder.npower" data-source-line="13" data-uid="lnk11" id="link_Cylinder_Cylinder.npower"><path d="M664.93,118.32 C698.58,118.55 734.3801,118.7882 751.5901,118.9082" fill="none" id="Cylinder-to-Cylinder\npower" style="stroke:#181818;stroke-width:1;"/><polygon fill="#181818" points="757.59,118.95,748.6181,114.8873,752.5901,118.9151,748.5623,122.8872,757.59,118.95" style="stroke:#181818;stroke-width:1;"/></g><!--link Cylinder to shape--><g class="link" data-entity-1="Cylinder" data-entity-2="shape" data-source-line="14" data-uid="lnk13" id="link_Cylinder_shape"><path d="M566.22,105.94 C546.33,101.56 522.97,97.16 501.56,95 C412.75,86.05 388.94,81.42 300.72,95 C208.73,109.16 185.83,119.7 101,158 C78.38,168.21 58.8814,180.9123 46.3714,189.5823" fill="none" id="Cylinder-to-shape" style="stroke:#181818;stroke-width:1;"/><polygon fill="#181818" points="41.44,193,51.1157,191.1611,45.5495,190.1519,46.5587,184.5858,41.44,193" style="stroke:#181818;stroke-width:1;"/></g><!--link Thermoplastic\nposition to Haul_Off--><g class="link" data-entity-1="Thermoplastic.nposition" data-entity-2="Haul_Off" data-source-line="18" data-uid="lnk16" id="link_Thermoplastic.nposition_Haul_Off"><path d="M409.95,410 C434.73,410 512.98,410 565.22,410" fill="none" id="Thermoplastic\nposition-Haul_Off" style="stroke:#181818;stroke-width:1;"/></g><!--link Haul_Off to Haul_Off\npower--><g class="link" data-entity-1="Haul_Off" data-entity-2="Haul_Off.npower" data-source-line="19" data-uid="lnk17" id="link_Haul_Off_Haul_Off.npower"><path d="M654.54,386.55 C689.55,364.93 733.7333,337.6399 752.6533,325.9699" fill="none" id="Haul_Off-to-Haul_Off\npower" style="stroke:#181818;stroke-width:1;"/><polygon fill="#181818" points="757.76,322.82,748,324.1403,753.5044,325.4449,752.1998,330.9492,757.76,322.82" style="stroke:#181818;stroke-width:1;"/></g><!--link Haul_Off to sensor\nposition--><g class="link" data-entity-1="Haul_Off" data-entity-2="sensor.nposition" data-source-line="20" data-uid="lnk19" id="link_Haul_Off_sensor.nposition"><path d="M665.76,420.9 C699.33,428.33 734.8121,436.1917 751.8221,439.9617" fill="none" id="Haul_Off-to-sensor\nposition" style="stroke:#181818;stroke-width:1;"/><polygon fill="#181818" points="757.68,441.26,749.7588,435.4073,752.7985,440.1781,748.0277,443.2178,757.68,441.26" style="stroke:#181818;stroke-width:1;"/></g><!--link shape to Thermoplastic--><g class="link" data-entity-1="shape" data-entity-2="Thermoplastic" data-source-line="22" data-uid="lnk21" id="link_shape_Thermoplastic"><path d="M38.03,208.23 C57.47,243.87 127.98,373.19 157.12,426.64" fill="none" id="shape-Thermoplastic" style="stroke:#181818;stroke-width:1;"/></g><!--reverse link shape to press--><g class="link" data-entity-1="shape" data-entity-2="press" data-source-line="25" data-uid="lnk24" id="link_shape_press"><path d="M47.15,199 C64.59,199 100.46,199 131.75,199" fill="none" id="shape-backto-press" style="stroke:#181818;stroke-width:1;"/><polygon fill="#181818" points="41.15,199,50.15,203,46.15,199,50.15,195,41.15,199" style="stroke:#181818;stroke-width:1;"/></g><!--link Thermoplastic to Thermoplastic\nposition--><g class="link" data-entity-1="Thermoplastic" data-entity-2="Thermoplastic.nposition" data-source-line="27" data-uid="lnk25" id="link_Thermoplastic_Thermoplastic.nposition"><path d="M240.97,437.89 C296.35,428.19 362.6601,416.5657 386.3401,412.4157" fill="none" id="Thermoplastic-to-Thermoplastic\nposition" style="stroke:#181818;stroke-width:1;"/><polygon fill="#181818" points="392.25,411.38,382.6946,408.9937,387.3251,412.2431,384.0756,416.8736,392.25,411.38" style="stroke:#181818;stroke-width:1;"/></g><!--link press to contact\nsensor--><g class="link" data-entity-1="press" data-entity-2="contact.nsensor" data-source-line="28" data-uid="lnk26" id="link_press_contact.nsensor"><path d="M210.07,192.14 C265.41,182.2 358.4243,165.4895 386.5743,160.4395" fill="none" id="press-to-contact\nsensor" style="stroke:#181818;stroke-width:1;"/><polygon fill="#181818" points="392.48,159.38,382.9151,157.032,387.5586,160.2629,384.3277,164.9063,392.48,159.38" style="stroke:#181818;stroke-width:1;"/></g><!--link Infrared_lamp to room--><g class="link" data-entity-1="Infrared_lamp" data-entity-2="room" data-source-line="31" data-uid="lnk28" id="link_Infrared_lamp_room"><path d="M932.32,397.64 C932.32,347.23 932.32,302.82 932.32,252.41" fill="none" id="Infrared_lamp-to-room" style="stroke:#181818;stroke-width:1;"/><polygon fill="#181818" points="932.32,246.41,928.32,255.41,932.32,251.41,936.32,255.41,932.32,246.41" style="stroke:#181818;stroke-width:1;"/></g><!--link Thermoplastic to Infrared_lamp--><g class="link" data-entity-1="Thermoplastic" data-entity-2="Infrared_lamp" data-source-line="32" data-uid="lnk29" id="link_Thermoplastic_Infrared_lamp"><path d="M225.86,473.55 C337.57,518.72 600.57,606.55 803.56,530 C849.66,512.61 886.6878,475.2547 909.1678,448.7647" fill="none" id="Thermoplastic-to-Infrared_lamp" style="stroke:#181818;stroke-width:1;"/><polygon fill="#181818" points="913.05,444.19,904.1768,448.464,909.8148,448.0023,910.2765,453.6403,913.05,444.19" style="stroke:#181818;stroke-width:1;"/></g><!--link Extruder to room--><g class="link" data-entity-1="Extruder" data-entity-2="room" data-source-line="35" data-uid="lnk31" id="link_Extruder_room"><path d="M666.16,509.98 C706.3,521.96 762.67,530.8 803.56,505 C804.33,504.51 902.0575,298.6605 924.3775,251.6305" fill="none" id="Extruder-to-room" style="stroke:#181818;stroke-width:1;"/><polygon fill="#181818" points="926.95,246.21,919.4775,252.6258,924.8062,250.7271,926.7049,256.0558,926.95,246.21" style="stroke:#181818;stroke-width:1;"/></g><!--link Thermoplastic to Extruder--><g class="link" data-entity-1="Thermoplastic" data-entity-2="Extruder" data-source-line="36" data-uid="lnk32" id="link_Thermoplastic_Extruder"><path d="M241.21,463.26 C260.43,466.55 281.33,469.76 300.72,472 C393.72,482.72 496.9633,487.4117 558.9533,489.4617" fill="none" id="Thermoplastic-to-Extruder" style="stroke:#181818;stroke-width:1;"/><polygon fill="#181818" points="564.95,489.66,556.0871,485.3647,559.9527,489.4947,555.8227,493.3603,564.95,489.66" style="stroke:#181818;stroke-width:1;"/></g><!--link Rails to room--><g class="link" data-entity-1="Rails" data-entity-2="room" data-source-line="39" data-uid="lnk34" id="link_Rails_room"><path d="M652.67,203.36 C725.33,212.13 879.5533,230.7501 917.2833,235.3101" fill="none" id="Rails-to-room" style="stroke:#181818;stroke-width:1;"/><polygon fill="#181818" points="923.24,236.03,914.785,230.979,918.2761,235.4301,913.8251,238.9212,923.24,236.03" style="stroke:#181818;stroke-width:1;"/></g><!--link press to Rails--><g class="link" data-entity-1="press" data-entity-2="Rails" data-source-line="40" data-uid="lnk35" id="link_press_Rails"><path d="M210.01,206.88 C235.55,211.74 270,217.51 300.72,220 C389.69,227.2 412.67,228.19 501.56,220 C527.49,217.61 550.4833,213.4579 572.5433,208.7279" fill="none" id="press-to-Rails" style="stroke:#181818;stroke-width:1;"/><polygon fill="#181818" points="578.41,207.47,568.7714,205.4457,573.5211,208.5183,570.4486,213.268,578.41,207.47" style="stroke:#181818;stroke-width:1;"/></g><!--link Synchronization_Board to Rails--><g class="link" data-entity-1="Synchronization_Board" data-entity-2="Rails" data-source-line="43" data-uid="lnk37" id="link_Synchronization_Board_Rails"><path d="M451.14,277.47 C489.98,258.82 537.9612,235.7771 572.9912,218.9571" fill="none" id="Synchronization_Board-to-Rails" style="stroke:#181818;stroke-width:1;"/><polygon fill="#181818" points="578.4,216.36,568.5554,216.6498,573.8927,218.5242,572.0182,223.8615,578.4,216.36" style="stroke:#181818;stroke-width:1;"/></g><!--link Synchronization_Board to Cylinder--><g class="link" data-entity-1="Synchronization_Board" data-entity-2="Cylinder" data-source-line="44" data-uid="lnk38" id="link_Synchronization_Board_Cylinder"><path d="M432.94,277.44 C452.98,261.74 479.42,240.33 501.56,220 C529.81,194.07 532.83,183.4 561.56,158 C567.86,152.42 570.1214,150.4345 576.9314,145.2045" fill="none" id="Synchronization_Board-to-Cylinder" style="stroke:#181818;stroke-width:1;"/><polygon fill="#181818" points="581.69,141.55,572.1157,143.8594,577.7245,144.5955,576.9885,150.2042,581.69,141.55" style="stroke:#181818;stroke-width:1;"/></g><!--link Synchronization_Board to Haul_Off--><g class="link" data-entity-1="Synchronization_Board" data-entity-2="Haul_Off" data-source-line="45" data-uid="lnk39" id="link_Synchronization_Board_Haul_Off"><path d="M455.12,324.62 C470.24,331.6 486.64,339.41 501.56,347 C525.88,359.38 547.3575,371.2284 568.6875,383.3884" fill="none" id="Synchronization_Board-to-Haul_Off" style="stroke:#181818;stroke-width:1;"/><polygon fill="#181818" points="573.9,386.36,568.0624,378.4277,569.5563,383.8837,564.1003,385.3776,573.9,386.36" style="stroke:#181818;stroke-width:1;"/></g><!--link Synchronization_Board to Extruder--><g class="link" data-entity-1="Synchronization_Board" data-entity-2="Extruder" data-source-line="46" data-uid="lnk40" id="link_Synchronization_Board_Extruder"><path d="M468.28,324.61 C480.18,330.73 491.87,338.15 501.56,347 C540.95,383 526.22,411.01 561.56,451 C566.75,456.87 568.2362,458.7 574.5062,463.72" fill="none" id="Synchronization_Board-to-Extruder" style="stroke:#181818;stroke-width:1;"/><polygon fill="#181818" points="579.19,467.47,574.6644,458.7225,575.2869,464.345,569.6644,464.9675,579.19,467.47" style="stroke:#181818;stroke-width:1;"/></g><!--link Synchronization_Board to room--><g class="link" data-entity-1="Synchronization_Board" data-entity-2="room" data-source-line="47" data-uid="lnk41" id="link_Synchronization_Board_room"><path d="M501.63,323.39 C521.39,326.98 542.05,330.12 561.56,332 C609.34,336.6 626.43,353.07 669.56,332 C708.54,312.96 691.46,275.76 729.56,255 C796.26,218.66 888.1174,229.8695 917.0374,234.5595" fill="none" id="Synchronization_Board-to-room" style="stroke:#181818;stroke-width:1;"/><polygon fill="#181818" points="922.96,235.52,914.7164,230.1309,918.0245,234.7196,913.4357,238.0277,922.96,235.52" style="stroke:#181818;stroke-width:1;"/></g><!--link Synchronization_Board to Safety_Alarm--><g class="link" data-entity-1="Synchronization_Board" data-entity-2="Safety_Alarm" data-source-line="48" data-uid="lnk43" id="link_Synchronization_Board_Safety_Alarm"><path d="M501.82,293.96 C544.72,290.93 583.0648,288.2214 600.6748,286.9814" fill="none" id="Synchronization_Board-to-Safety_Alarm" style="stroke:#181818;stroke-width:1;"/><polygon fill="#181818" points="606.66,286.56,597.4013,283.202,601.6723,286.9112,597.9632,291.1823,606.66,286.56" style="stroke:#181818;stroke-width:1;"/></g><!--link room to energy--><g class="link" data-entity-1="room" data-entity-2="energy" data-source-line="52" data-uid="lnk45" id="link_room_energy"><path d="M932.32,227.85 C932.32,159.63 932.32,97.41 932.32,29.19" fill="none" id="room-to-energy" style="stroke:#181818;stroke-width:1;"/><polygon fill="#181818" points="932.32,23.19,928.32,32.19,932.32,28.19,936.32,32.19,932.32,23.19" style="stroke:#181818;stroke-width:1;"/></g><!--SRC=[VPB1JiCm38RlUOfe9pZq5P1WGc8d9CQDeSgawHejTIed4nJ4kvCcRTPiAprKIVpvjtydzg2m0uAMVu0uxCaSiLeRROWx0hG-9D4nBMl7dU6azetZbI8fd3B8c31jPz0ZV8DEKWr2sh9Ii1yKVnZtN_YzhNkji9Bq7hOtjtmb33eGReTMeZMquaN19uej9KqdE-pCfun9P4oRW2SuwlAvhgy10PeKVE3kKkyIiGrqCXg9JKqLJaszDf9QqscmJeb1oQfXEg7sH0TusiJQvwrUGU9ePfAnXQnWwYDqEjJCmhCxw4XQ6_6mv8LE1iDfbXWxMF8sLncuyziSXxN1clmJgaeDRHTBPqVSvwRxkoYVeJCZZr-EZkbTJBlGoB9Oua9uL7e1fSUHX6MkSV8NWgEdRO-Y8OFg6uPHb0y6g8eQLqCpWV-PzFh_nx8djOnbTfUnP7OPsK8jNL_UQo2FClRBXYHUa8z9bBJl_m00]--></g></svg>