<svg xmlns="http://www.w3.org/2000/svg" xmlns:xlink="http://www.w3.org/1999/xlink" contentStyleType="text/css" data-diagram-type="SEQUENCE" height="912px" preserveAspectRatio="none" style="width:1278px;height:912px;background:#FFFFFF;" version="1.1" viewBox="0 0 1278 912" width="1278px" zoomAndPan="magnify"><title>Linear Extrusion Process Flow</title><defs/><g><text fill="#000000" font-family="sans-serif" font-size="14" font-weight="bold" lengthAdjust="spacing" textLength="237.1865" x="516.6638" y="27.9951">Linear Extrusion Process Flow</text><rect fill="none" height="343.5938" style="stroke:#000000;stroke-width:1.5;" width="1140.9058" x="10" y="422.9219"/><rect fill="none" height="283.3281" style="stroke:#000000;stroke-width:1.5;" width="800.7168" x="340.189" y="476.1875"/><rect fill="none" height="104.5313" style="stroke:#000000;stroke-width:1.5;" width="780.7168" x="350.189" y="529.4531"/><rect fill="none" height="104.5313" style="stroke:#000000;stroke-width:1.5;" width="780.7168" x="350.189" y="647.9844"/><g><title>User</title><rect fill="#000000" fill-opacity="0.00000" height="803.3203" width="8" x="38.9551" y="73.5938"/><line style="stroke:#181818;stroke-width:0.5;stroke-dasharray:5,5;" x1="42" x2="42" y1="73.5938" y2="876.9141"/></g><g><title>Extruder</title><rect fill="#000000" fill-opacity="0.00000" height="803.3203" width="8" x="186.0615" y="73.5938"/><line style="stroke:#181818;stroke-width:0.5;stroke-dasharray:5,5;" x1="189.8091" x2="189.8091" y1="73.5938" y2="876.9141"/></g><g><title>Infrared Lamp</title><rect fill="#000000" fill-opacity="0.00000" height="803.3203" width="8" x="289.7515" y="73.5938"/><line style="stroke:#181818;stroke-width:0.5;stroke-dasharray:5,5;" x1="293.314" x2="293.314" y1="73.5938" y2="876.9141"/></g><g><title>Linear Rail</title><rect fill="#000000" fill-opacity="0.00000" height="803.3203" width="8" x="400.2124" y="73.5938"/><line style="stroke:#181818;stroke-width:0.5;stroke-dasharray:5,5;" x1="404.189" x2="404.189" y1="73.5938" y2="876.9141"/></g><g><title>Press</title><rect fill="#000000" fill-opacity="0.00000" height="803.3203" width="8" x="479.9355" y="73.5938"/><line style="stroke:#181818;stroke-width:0.5;stroke-dasharray:5,5;" x1="483.2358" x2="483.2358" y1="73.5938" y2="876.9141"/></g><g><title>Cylinder</title><rect fill="#000000" fill-opacity="0.00000" height="803.3203" width="8" x="551.6196" y="73.5938"/><line style="stroke:#181818;stroke-width:0.5;stroke-dasharray:5,5;" x1="554.6353" x2="554.6353" y1="73.5938" y2="876.9141"/></g><g><title>Haul Off</title><rect fill="#000000" fill-opacity="0.00000" height="803.3203" width="8" x="633.2021" y="73.5938"/><line style="stroke:#181818;stroke-width:0.5;stroke-dasharray:5,5;" x1="636.604" x2="636.604" y1="73.5938" y2="876.9141"/></g><g><title>Cooling System</title><rect fill="#000000" fill-opacity="0.00000" height="803.3203" width="8" x="740.3511" y="73.5938"/><line style="stroke:#181818;stroke-width:0.5;stroke-dasharray:5,5;" x1="743.8003" x2="743.8003" y1="73.5938" y2="876.9141"/></g><g><title>Synchronization</title><rect fill="#000000" fill-opacity="0.00000" height="803.3203" width="8" x="1053.6836" y="73.5938"/><line style="stroke:#181818;stroke-width:0.5;stroke-dasharray:5,5;" x1="1057.4614" x2="1057.4614" y1="73.5938" y2="876.9141"/></g><g class="participant participant-head" data-participant="User"><rect fill="#E2E2F0" height="30.2969" rx="2.5" ry="2.5" style="stroke:#181818;stroke-width:0.5;" width="45.9102" x="20" y="42.2969"/><text fill="#000000" font-family="sans-serif" font-size="14" lengthAdjust="spacing" textLength="31.9102" x="27" y="62.292">User</text></g><g class="participant participant-tail" data-participant="User"><rect fill="#E2E2F0" height="30.2969" rx="2.5" ry="2.5" style="stroke:#181818;stroke-width:0.5;" width="45.9102" x="20" y="875.9141"/><text fill="#000000" font-family="sans-serif" font-size="14" lengthAdjust="spacing" textLength="31.9102" x="27" y="895.9092">User</text></g><g class="participant participant-head" data-participant="extruder"><rect fill="#E2E2F0" height="30.2969" rx="2.5" ry="2.5" style="stroke:#181818;stroke-width:0.5;" width="74.5049" x="152.8091" y="42.2969"/><text fill="#000000" font-family="sans-serif" font-size="14" lengthAdjust="spacing" textLength="60.5049" x="159.8091" y="62.292">Extruder</text></g><g class="participant participant-tail" data-participant="extruder"><rect fill="#E2E2F0" height="30.2969" rx="2.5" ry="2.5" style="stroke:#181818;stroke-width:0.5;" width="74.5049" x="152.8091" y="875.9141"/><text fill="#000000" font-family="sans-serif" font-size="14" lengthAdjust="spacing" textLength="60.5049" x="159.8091" y="895.9092">Extruder</text></g><g class="participant participant-head" data-participant="InfraredLamp"><rect fill="#E2E2F0" height="30.2969" rx="2.5" ry="2.5" style="stroke:#181818;stroke-width:0.5;" width="112.875" x="237.314" y="42.2969"/><text fill="#000000" font-family="sans-serif" font-size="14" lengthAdjust="spacing" textLength="98.875" x="244.314" y="62.292">Infrared Lamp</text></g><g class="participant participant-tail" data-participant="InfraredLamp"><rect fill="#E2E2F0" height="30.2969" rx="2.5" ry="2.5" style="stroke:#181818;stroke-width:0.5;" width="112.875" x="237.314" y="875.9141"/><text fill="#000000" font-family="sans-serif" font-size="14" lengthAdjust="spacing" textLength="98.875" x="244.314" y="895.9092">Infrared Lamp</text></g><g class="participant participant-head" data-participant="rail"><rect fill="#E2E2F0" height="30.2969" rx="2.5" ry="2.5" style="stroke:#181818;stroke-width:0.5;" width="88.0469" x="360.189" y="42.2969"/><text fill="#000000" font-family="sans-serif" font-size="14" lengthAdjust="spacing" textLength="74.0469" x="367.189" y="62.292">Linear Rail</text></g><g class="participant participant-tail" data-participant="rail"><rect fill="#E2E2F0" height="30.2969" rx="2.5" ry="2.5" style="stroke:#181818;stroke-width:0.5;" width="88.0469" x="360.189" y="875.9141"/><text fill="#000000" font-family="sans-serif" font-size="14" lengthAdjust="spacing" textLength="74.0469" x="367.189" y="895.9092">Linear Rail</text></g><g class="participant participant-head" data-participant="press"><rect fill="#E2E2F0" height="30.2969" rx="2.5" ry="2.5" style="stroke:#181818;stroke-width:0.5;" width="51.3994" x="458.2358" y="42.2969"/><text fill="#000000" font-family="sans-serif" font-size="14" lengthAdjust="spacing" textLength="37.3994" x="465.2358" y="62.292">Press</text></g><g class="participant participant-tail" data-participant="press"><rect fill="#E2E2F0" height="30.2969" rx="2.5" ry="2.5" style="stroke:#181818;stroke-width:0.5;" width="51.3994" x="458.2358" y="875.9141"/><text fill="#000000" font-family="sans-serif" font-size="14" lengthAdjust="spacing" textLength="37.3994" x="465.2358" y="895.9092">Press</text></g><g class="participant participant-head" data-participant="Cylinder"><rect fill="#E2E2F0" height="30.2969" rx="2.5" ry="2.5" style="stroke:#181818;stroke-width:0.5;" width="71.9688" x="519.6353" y="42.2969"/><text fill="#000000" font-family="sans-serif" font-size="14" lengthAdjust="spacing" textLength="57.9688" x="526.6353" y="62.292">Cylinder</text></g><g class="participant participant-tail" data-participant="Cylinder"><rect fill="#E2E2F0" height="30.2969" rx="2.5" ry="2.5" style="stroke:#181818;stroke-width:0.5;" width="71.9688" x="519.6353" y="875.9141"/><text fill="#000000" font-family="sans-serif" font-size="14" lengthAdjust="spacing" textLength="57.9688" x="526.6353" y="895.9092">Cylinder</text></g><g class="participant participant-head" data-participant="haul_off"><rect fill="#E2E2F0" height="30.2969" rx="2.5" ry="2.5" style="stroke:#181818;stroke-width:0.5;" width="71.1963" x="601.604" y="42.2969"/><text fill="#000000" font-family="sans-serif" font-size="14" lengthAdjust="spacing" textLength="57.1963" x="608.604" y="62.292">Haul Off</text></g><g class="participant participant-tail" data-participant="haul_off"><rect fill="#E2E2F0" height="30.2969" rx="2.5" ry="2.5" style="stroke:#181818;stroke-width:0.5;" width="71.1963" x="601.604" y="875.9141"/><text fill="#000000" font-family="sans-serif" font-size="14" lengthAdjust="spacing" textLength="57.1963" x="608.604" y="895.9092">Haul Off</text></g><g class="participant participant-head" data-participant="CoolingSystem"><rect fill="#E2E2F0" height="30.2969" rx="2.5" ry="2.5" style="stroke:#181818;stroke-width:0.5;" width="123.1016" x="682.8003" y="42.2969"/><text fill="#000000" font-family="sans-serif" font-size="14" lengthAdjust="spacing" textLength="109.1016" x="689.8003" y="62.292">Cooling System</text></g><g class="participant participant-tail" data-participant="CoolingSystem"><rect fill="#E2E2F0" height="30.2969" rx="2.5" ry="2.5" style="stroke:#181818;stroke-width:0.5;" width="123.1016" x="682.8003" y="875.9141"/><text fill="#000000" font-family="sans-serif" font-size="14" lengthAdjust="spacing" textLength="109.1016" x="689.8003" y="895.9092">Cooling System</text></g><g class="participant participant-head" data-participant="Synchronization"><rect fill="#E2E2F0" height="30.2969" rx="2.5" ry="2.5" style="stroke:#181818;stroke-width:0.5;" width="126.4443" x="994.4614" y="42.2969"/><text fill="#000000" font-family="sans-serif" font-size="14" lengthAdjust="spacing" textLength="112.4443" x="1001.4614" y="62.292">Synchronization</text></g><g class="participant participant-tail" data-participant="Synchronization"><rect fill="#E2E2F0" height="30.2969" rx="2.5" ry="2.5" style="stroke:#181818;stroke-width:0.5;" width="126.4443" x="994.4614" y="875.9141"/><text fill="#000000" font-family="sans-serif" font-size="14" lengthAdjust="spacing" textLength="112.4443" x="1001.4614" y="895.9092">Synchronization</text></g><rect fill="#EEEEEE" height="3" style="stroke:#EEEEEE;stroke-width:1;" width="1271.5142" x="0" y="104.1602"/><line style="stroke:#000000;stroke-width:1;" x1="0" x2="1271.5142" y1="104.1602" y2="104.1602"/><line style="stroke:#000000;stroke-width:1;" x1="0" x2="1271.5142" y1="107.1602" y2="107.1602"/><rect fill="#EEEEEE" height="23.1328" style="stroke:#000000;stroke-width:2;" width="110.624" x="580.4451" y="93.5938"/><text fill="#000000" font-family="sans-serif" font-size="13" font-weight="bold" lengthAdjust="spacing" textLength="92.0981" x="586.4451" y="109.6606">Initialization</text><g class="message" data-participant-1="extruder" data-participant-2="Synchronization"><polygon fill="#181818" points="1045.6836,143.8594,1055.6836,147.8594,1045.6836,151.8594,1049.6836,147.8594" style="stroke:#181818;stroke-width:1;"/><line style="stroke:#181818;stroke-width:1;" x1="190.0615" x2="1051.6836" y1="147.8594" y2="147.8594"/><text fill="#000000" font-family="sans-serif" font-size="13" lengthAdjust="spacing" textLength="96.2178" x="197.0615" y="142.7935">Material speed</text></g><g class="message" data-participant-1="Synchronization" data-participant-2="haul_off"><polygon fill="#181818" points="648.2021,172.9922,638.2021,176.9922,648.2021,180.9922,644.2021,176.9922" style="stroke:#181818;stroke-width:1;"/><line style="stroke:#181818;stroke-width:1;" x1="642.2021" x2="1056.6836" y1="176.9922" y2="176.9922"/><text fill="#000000" font-family="sans-serif" font-size="13" lengthAdjust="spacing" textLength="149.2969" x="654.2021" y="171.9263">Speed Synchronization</text></g><g class="message" data-participant-1="Synchronization" data-participant-2="rail"><polygon fill="#181818" points="415.2124,202.125,405.2124,206.125,415.2124,210.125,411.2124,206.125" style="stroke:#181818;stroke-width:1;"/><line style="stroke:#181818;stroke-width:1;" x1="409.2124" x2="1056.6836" y1="206.125" y2="206.125"/><text fill="#000000" font-family="sans-serif" font-size="13" lengthAdjust="spacing" textLength="149.2969" x="421.2124" y="201.0591">Speed Synchronization</text></g><g class="message" data-participant-1="Synchronization" data-participant-2="Synchronization"><line style="stroke:#181818;stroke-width:1;" x1="1057.6836" x2="1099.6836" y1="235.2578" y2="235.2578"/><line style="stroke:#181818;stroke-width:1;" x1="1099.6836" x2="1099.6836" y1="235.2578" y2="248.2578"/><line style="stroke:#181818;stroke-width:1;" x1="1058.6836" x2="1099.6836" y1="248.2578" y2="248.2578"/><polygon fill="#181818" points="1068.6836,244.2578,1058.6836,248.2578,1068.6836,252.2578,1064.6836,248.2578" style="stroke:#181818;stroke-width:1;"/><text fill="#000000" font-family="sans-serif" font-size="13" lengthAdjust="spacing" textLength="199.8306" x="1064.6836" y="230.1919">Wait until rail position reached</text></g><g class="message" data-participant-1="Synchronization" data-participant-2="InfraredLamp"><polygon fill="#181818" points="304.7515,273.3906,294.7515,277.3906,304.7515,281.3906,300.7515,277.3906" style="stroke:#181818;stroke-width:1;"/><line style="stroke:#181818;stroke-width:1;" x1="298.7515" x2="1056.6836" y1="277.3906" y2="277.3906"/><text fill="#000000" font-family="sans-serif" font-size="13" lengthAdjust="spacing" textLength="287.3774" x="310.7515" y="272.3247">Start heating, and keep the desired position</text></g><g class="message" data-participant-1="InfraredLamp" data-participant-2="Synchronization"><polygon fill="#181818" points="1045.6836,302.5234,1055.6836,306.5234,1045.6836,310.5234,1049.6836,306.5234" style="stroke:#181818;stroke-width:1;"/><line style="stroke:#181818;stroke-width:1;" x1="293.7515" x2="1051.6836" y1="306.5234" y2="306.5234"/><text fill="#000000" font-family="sans-serif" font-size="13" lengthAdjust="spacing" textLength="141.9209" x="300.7515" y="301.4575">Temperature reached</text></g><g class="message" data-participant-1="Synchronization" data-participant-2="haul_off"><polygon fill="#181818" points="648.2021,331.6563,638.2021,335.6563,648.2021,339.6563,644.2021,335.6563" style="stroke:#181818;stroke-width:1;"/><line style="stroke:#181818;stroke-width:1;" x1="642.2021" x2="1056.6836" y1="335.6563" y2="335.6563"/><text fill="#000000" font-family="sans-serif" font-size="13" lengthAdjust="spacing" textLength="142.7271" x="654.2021" y="330.5903">Start pullung material</text></g><g class="message" data-participant-1="Synchronization" data-participant-2="CoolingSystem"><polygon fill="#181818" points="755.3511,360.7891,745.3511,364.7891,755.3511,368.7891,751.3511,364.7891" style="stroke:#181818;stroke-width:1;"/><line style="stroke:#181818;stroke-width:1;" x1="749.3511" x2="1056.6836" y1="364.7891" y2="364.7891"/><text fill="#000000" font-family="sans-serif" font-size="13" lengthAdjust="spacing" textLength="289.3325" x="761.3511" y="359.7231">Start colling, and keep to the desire position</text></g><rect fill="#EEEEEE" height="3" style="stroke:#EEEEEE;stroke-width:1;" width="1271.5142" x="0" y="393.3555"/><line style="stroke:#000000;stroke-width:1;" x1="0" x2="1271.5142" y1="393.3555" y2="393.3555"/><line style="stroke:#000000;stroke-width:1;" x1="0" x2="1271.5142" y1="396.3555" y2="396.3555"/><rect fill="#EEEEEE" height="23.1328" style="stroke:#000000;stroke-width:2;" width="142.0386" x="564.7378" y="382.7891"/><text fill="#000000" font-family="sans-serif" font-size="13" font-weight="bold" lengthAdjust="spacing" textLength="123.5127" x="570.7378" y="398.856">Production Cycle</text><path d="M10,422.9219 L199.2251,422.9219 L199.2251,430.0547 L189.2251,440.0547 L10,440.0547 L10,422.9219" fill="#EEEEEE" style="stroke:#000000;stroke-width:1.5;"/><rect fill="none" height="343.5938" style="stroke:#000000;stroke-width:1.5;" width="1140.9058" x="10" y="422.9219"/><text fill="#000000" font-family="sans-serif" font-size="13" font-weight="bold" lengthAdjust="spacing" textLength="144.2251" x="25" y="435.9888">Continuous Process</text><g class="message" data-participant-1="User" data-participant-2="extruder"><polygon fill="#181818" points="178.0615,457.1875,188.0615,461.1875,178.0615,465.1875,182.0615,461.1875" style="stroke:#181818;stroke-width:1;"/><line style="stroke:#181818;stroke-width:1;" x1="42.9551" x2="184.0615" y1="461.1875" y2="461.1875"/><text fill="#000000" font-family="sans-serif" font-size="13" lengthAdjust="spacing" textLength="123.1064" x="49.9551" y="456.1216">Start material feed</text></g><path d="M340.189,476.1875 L416.813,476.1875 L416.813,483.3203 L406.813,493.3203 L340.189,493.3203 L340.189,476.1875" fill="#EEEEEE" style="stroke:#000000;stroke-width:1.5;"/><rect fill="none" height="283.3281" style="stroke:#000000;stroke-width:1.5;" width="800.7168" x="340.189" y="476.1875"/><text fill="#000000" font-family="sans-serif" font-size="13" font-weight="bold" lengthAdjust="spacing" textLength="31.624" x="355.189" y="489.2544">loop</text><text fill="#000000" font-family="sans-serif" font-size="11" font-weight="bold" lengthAdjust="spacing" textLength="80.0669" x="431.813" y="488.3979">[Every cycle]</text><g class="message" data-participant-1="Synchronization" data-participant-2="rail"><polygon fill="#181818" points="415.2124,510.4531,405.2124,514.4531,415.2124,518.4531,411.2124,514.4531" style="stroke:#181818;stroke-width:1;"/><line style="stroke:#181818;stroke-width:1;" x1="409.2124" x2="1056.6836" y1="514.4531" y2="514.4531"/><text fill="#000000" font-family="sans-serif" font-size="13" lengthAdjust="spacing" textLength="94.0151" x="421.2124" y="509.3872">Home position</text></g><path d="M350.189,529.4531 L419.6401,529.4531 L419.6401,536.5859 L409.6401,546.5859 L350.189,546.5859 L350.189,529.4531" fill="#EEEEEE" style="stroke:#000000;stroke-width:1.5;"/><rect fill="none" height="104.5313" style="stroke:#000000;stroke-width:1.5;" width="780.7168" x="350.189" y="529.4531"/><text fill="#000000" font-family="sans-serif" font-size="13" font-weight="bold" lengthAdjust="spacing" textLength="24.4512" x="365.189" y="542.52">opt</text><text fill="#000000" font-family="sans-serif" font-size="11" font-weight="bold" lengthAdjust="spacing" textLength="137.7363" x="434.6401" y="541.6636">[Rail at start position]</text><g class="message" data-participant-1="rail" data-participant-2="Synchronization"><polygon fill="#181818" points="1045.6836,563.7188,1055.6836,567.7188,1045.6836,571.7188,1049.6836,567.7188" style="stroke:#181818;stroke-width:1;"/><line style="stroke:#181818;stroke-width:1;" x1="404.2124" x2="1051.6836" y1="567.7188" y2="567.7188"/><text fill="#000000" font-family="sans-serif" font-size="13" lengthAdjust="spacing" textLength="148.6748" x="411.2124" y="562.6528">Initial position reached</text></g><g class="message" data-participant-1="Synchronization" data-participant-2="Cylinder"><polygon fill="#181818" points="566.6196,592.8516,556.6196,596.8516,566.6196,600.8516,562.6196,596.8516" style="stroke:#181818;stroke-width:1;"/><line style="stroke:#181818;stroke-width:1;" x1="560.6196" x2="1056.6836" y1="596.8516" y2="596.8516"/><text fill="#000000" font-family="sans-serif" font-size="13" lengthAdjust="spacing" textLength="72.0269" x="572.6196" y="591.7856">Close mold</text></g><g class="message" data-participant-1="Synchronization" data-participant-2="rail"><polygon fill="#181818" points="415.2124,621.9844,405.2124,625.9844,415.2124,629.9844,411.2124,625.9844" style="stroke:#181818;stroke-width:1;"/><line style="stroke:#181818;stroke-width:1;" x1="409.2124" x2="1056.6836" y1="625.9844" y2="625.9844"/><text fill="#000000" font-family="sans-serif" font-size="13" lengthAdjust="spacing" textLength="136.2905" x="421.2124" y="620.9185">Move to end position</text></g><path d="M350.189,647.9844 L419.6401,647.9844 L419.6401,655.1172 L409.6401,665.1172 L350.189,665.1172 L350.189,647.9844" fill="#EEEEEE" style="stroke:#000000;stroke-width:1.5;"/><rect fill="none" height="104.5313" style="stroke:#000000;stroke-width:1.5;" width="780.7168" x="350.189" y="647.9844"/><text fill="#000000" font-family="sans-serif" font-size="13" font-weight="bold" lengthAdjust="spacing" textLength="24.4512" x="365.189" y="661.0513">opt</text><text fill="#000000" font-family="sans-serif" font-size="11" font-weight="bold" lengthAdjust="spacing" textLength="130.9902" x="434.6401" y="660.1948">[Rail at end position]</text><g class="message" data-participant-1="rail" data-participant-2="Synchronization"><polygon fill="#181818" points="1045.6836,682.25,1055.6836,686.25,1045.6836,690.25,1049.6836,686.25" style="stroke:#181818;stroke-width:1;"/><line style="stroke:#181818;stroke-width:1;" x1="404.2124" x2="1051.6836" y1="686.25" y2="686.25"/><text fill="#000000" font-family="sans-serif" font-size="13" lengthAdjust="spacing" textLength="143.1968" x="411.2124" y="681.1841">Final Position reached</text></g><g class="message" data-participant-1="Synchronization" data-participant-2="Cylinder"><polygon fill="#181818" points="566.6196,711.3828,556.6196,715.3828,566.6196,719.3828,562.6196,715.3828" style="stroke:#181818;stroke-width:1;"/><line style="stroke:#181818;stroke-width:1;" x1="560.6196" x2="1056.6836" y1="715.3828" y2="715.3828"/><text fill="#000000" font-family="sans-serif" font-size="13" lengthAdjust="spacing" textLength="71.335" x="572.6196" y="710.3169">Open mold</text></g><g class="message" data-participant-1="Synchronization" data-participant-2="rail"><polygon fill="#181818" points="415.2124,740.5156,405.2124,744.5156,415.2124,748.5156,411.2124,744.5156" style="stroke:#181818;stroke-width:1;"/><line style="stroke:#181818;stroke-width:1;" x1="409.2124" x2="1056.6836" y1="744.5156" y2="744.5156"/><text fill="#000000" font-family="sans-serif" font-size="13" lengthAdjust="spacing" textLength="95.5449" x="421.2124" y="739.4497">Return to start</text></g><rect fill="#EEEEEE" height="3" style="stroke:#EEEEEE;stroke-width:1;" width="1271.5142" x="0" y="794.082"/><line style="stroke:#000000;stroke-width:1;" x1="0" x2="1271.5142" y1="794.082" y2="794.082"/><line style="stroke:#000000;stroke-width:1;" x1="0" x2="1271.5142" y1="797.082" y2="797.082"/><rect fill="#EEEEEE" height="23.1328" style="stroke:#000000;stroke-width:2;" width="138.0776" x="566.7183" y="783.5156"/><text fill="#000000" font-family="sans-serif" font-size="13" font-weight="bold" lengthAdjust="spacing" textLength="119.5518" x="572.7183" y="799.5825">Emergency Stop</text><path d="M142,821.6484 L142,861.6484 L1105,861.6484 L1105,831.6484 L1095,821.6484 L142,821.6484" fill="#FEFFDD" style="stroke:#181818;stroke-width:0.5;"/><path d="M1095,821.6484 L1095,831.6484 L1105,831.6484 L1095,821.6484" fill="#FEFFDD" style="stroke:#181818;stroke-width:0.5;"/><text fill="#000000" font-family="sans-serif" font-size="13" lengthAdjust="spacing" textLength="223.1328" x="507.4819" y="838.7153">Any component can trigger E-stop</text><text fill="#000000" font-family="sans-serif" font-size="13" lengthAdjust="spacing" textLength="214.8364" x="507.4819" y="853.8481">All movements stop immediately</text><!--SRC=[bLJRRjim37ttLn1vRdzWG0OCGOeEQD6WsR37GR1fMvWa2fASpVlwaOgTnPTcdO4aDdqETKWU9kba49wqGnLW_ok5BcfoS0XKOepmOEXdKNWLaYwrLox1vcl4i9c6Cg_YCAW8E3nC8PzT7LJ02fwKzHatHYGmnGvgNfKs6HduPeeu11QNttcvcxxSzKQxh6OQVrITWPUwphoM7xvJNS-eHCnjuDZ7X3O3Xz0vCaKVUrUsWPp-hH8tRLCKnNRBTUcabHc2iDqMnTWIkFy8Cn9yW6ULC303eaUiYZc0EQDO1Xy5Cq-onf6c_Gz-gUkRqWawbpXFJkOfwlmge2hRTQNNGvNJ4_SBMkJthha3vIhuWUWXjGWLHYs66DCM4-wgeYzeFGQLke2tH5otAmlmdJ4TZzKEdLuZJUPyOPPap4mwNQd_ArucpqjJTMLEkEjBNYkUVHEeyvoSs-WwwkAuMGNm9QiaPr_yCHux2eLQ727G_6M8FEnF67eevO0SbElj-J-IlL8vuicdl5wW4iHpYyRXNZ0vmUeO1eSl3N53phYKJDyPYWYMJFKE_SzqGkavkcfP1WTNIre5twxfGJkkwF1MHV-kwiMZcnPrkx1NP1ixAIqFO56J_Cf7ZBMt61fqPS_sO0UmhHmb16vDk7ZdRh7aakMJOwkGzUIG_x5AnGS6tJJCszz7pdK66SFAJsWP4q72eAt5IhCBJIygGCxx0m00]--></g></svg>